<!-- <?php echo '<?xml version="1.0" encoding="utf-8"?>';?> -->
<!-- Generator: Adobe Illustrator 16.0.0, SVG Export Plug-In . SVG Version: 6.00 Build 0)  -->
<!DOCTYPE svg PUBLIC "-//W3C//DTD SVG 1.1//EN" "http://www.w3.org/Graphics/SVG/1.1/DTD/svg11.dtd">
<svg version="1.1" 
	 id="Layer_1" 
	 class="map-style"
	 xmlns="http://www.w3.org/2000/svg" 
	 xmlns:xlink="http://www.w3.org/1999/xlink" 
	 x="0px" 
	 y="0px"
	 
	 viewBox="-106.016 0 1118.742 689.884"
	 enable-background="new -106.016 0 1118.742 689.884" 
	 xml:space="preserve">
<path fill="#506C15" d="M977.869,507.197c-0.752-14.585-9.171-57.885-24.958-90.361c-15.787-32.476-28.266-36.986-49.767-43.002
	c-21.501-6.013-29.619,5.413-28.417,8.253c1.203,2.839,5.112-0.283,11.728,11.896c6.615,12.178,9.473,5.714,9.473,5.714
	s6.314-0.152,4.661-6.016c-5.262,3.459-9.473,2.407-9.473,2.407s-9.773-3.459,6.315-12.179c16.088-8.72,29.919,16.688,29.919,16.688
	l3.459,32.776l2.556,27.366l3.157-16.539l-3.458-3.759l14.584-1.054l2.706,11.578l5.264,7.519l-2.857,6.766l1.805,27.664
	l-6.015,11.877l-32.175,11.127l-23.154,2.706l-15.186,9.622l-5.864,6.616l-10.224,3.91l-16.389-1.505l-4.661-5.563l19.246,1.052
	l5.412-0.601l-5.412-5.263l-41.799-5.563l-24.357-11.728l-1.052-3.347l-9.473-7.78l-5.864-13.982l5.864-12.93l-2.556-4.242v-9.291
	l-5.111-11.07l2.855-2.912l-1.202-2.897l-14.283-10.184l-8.57,4.06l-5.563-3.008l-10.825-5.111l-7.217-9.021l-0.629,0.727
	l-1.395-1.179c0.045-0.054,0.085-0.107,0.131-0.162c-0.604-0.74-1.19-1.48-1.777-2.21c-0.054-1.462-0.091-2.923-0.135-4.377
	c-1.146-0.026-2.282-0.044-3.419-0.063c-0.045-0.459-0.135-1.396-0.18-1.856c-0.6,0.003-1.193,0.018-1.788,0.024l-0.247-1.314
	c0.451,0.122,0.897,0.14,1.296-0.217c2.003-1.786,4.23-3.339,5.981-5.395c0.523,0.099,1.056,0.199,1.598,0.316
	c0.694-0.649,1.388-1.291,2.092-1.922c-0.046,2.498,0.614,4.907,2.68,6.485c0.784-0.928,3.563-1.407,2.508-3.094
	c-1.056-1.038-2.256-1.913-3.266-2.988c0.353-1.767,1.921-2.976,2.508-4.653c0.234-2.049,0.252-4.123,0.767-6.126
	c-0.965,0.324-1.958,0.622-2.904,0.948c0.243-0.622,0.73-1.851,0.974-2.473c2.571-1.885,4.556,2.013,7.279,1.498
	c-1.931-1.976-5.078-2.057-6.756-4.248c0.568-0.182,1.696-0.552,2.256-0.74c0.613-1.154,1.713-1.867,2.706-2.662
	c0.352-0.686,0.703-1.371,1.056-2.065c-0.668-0.162-2.012-0.486-2.688-0.65c1.326-1.064,2.77-1.966,4.258-2.778
	c0.83-1.651,2.147-2.923,3.455-4.185c0.135-3.429-3.292-5.207-5.232-7.525c-3.852-3.5-5.241-8.949-9.607-11.962
	c-2.426-3.085-4.393-6.521-6.647-9.752c-2.338-1.534-2.553-4.475-3.87-6.73c-0.086,0.004-0.168,0.007-0.251,0.01l-0.232-1.293
	c0.18,0.032,0.358,0.068,0.538,0.101c0.153-1.327,0.405-2.652,0.316-3.997c-0.161-1.798-0.913-3.956-1.512-6.097
	c-0.486-1.736-0.872-3.461-0.759-4.977c0.132,0.098,0.257,0.206,0.387,0.304c-2.161-7.119-11.184-11.388-15.319-17.893
	c-0.334,0.153-0.668,0.277-0.994,0.336c-1.267,0.229-2.421-0.278-3.066-1.75c0.01,0.713,0.027,2.138,0.036,2.86
	c-0.309,0.31-0.609,0.622-0.913,0.934l-1.481-0.626c0.275-0.381,0.544-0.768,0.824-1.146c-0.794-0.046-2.373-0.145-3.166-0.189
	c-0.01-1.453,1.118-2.283,2.138-3.104c-0.731-3.32-4.187-4.745-6.793-6.351c-2.5-1.677-5.629-1.66-8.507-1.47
	c-2.644,0.957-4.069,3.581-3.834,6.324c0.165,0.114,0.339,0.227,0.513,0.341l-1.666,0.71c-0.173-0.124-0.33-0.239-0.454-0.329
	c0.171-1.669,0.36-3.338,0.55-5.007c-1.019,0.406-2.038,0.803-3.058,1.209c-0.117,1.686-0.235,3.364-0.343,5.052l-0.966,0.009
	c-0.071-2.039-0.135-4.086-0.107-6.125c-0.396,0.487-1.19,1.453-1.588,1.94c-0.804-1.498-0.966-3.203-1.228-4.854
	c-0.613,0.036-1.849,0.108-2.461,0.145c0.667,0.92,1.334,1.84,2.029,2.751c-0.027,2.913-1.598,5.35-4.321,6.423
	c-1.506-1.975-3.04-3.925-4.646-5.809c0.172-0.433,0.522-1.317,0.694-1.759c-1.633,0.019-3.256,0.046-4.879,0.072
	c0.469,2.193-0.641,3.735-2.852,4.132c-1,0.857-1.984,1.723-2.977,2.598c0.984,0.169,1.438,0.714,1.652,1.41l-2.279,0.174
	l-0.124-0.166l-0.108-0.148h-0.006c-0.662-1.327-1.558-2.534-2.6-3.618c-1.209,0.316-2.39,0.966-3.662,0.768l-1.138,0.542
	c-0.01,0.025-0.019,0.049-0.027,0.072c-0.386,1.002-0.878,1.962-1.379,2.905c1.068,0.372,2.145,0.762,3.229,1.152l0.203,0.267
	c-0.02,0.718-0.06,1.913-0.085,2.533c-0.577,0.036-1.732,0.099-2.311,0.135c-0.667,2.244-2.646,3.843-3.472,5.948l-1.637-0.805
	c-1.087-1.596-2.28-3.123-3.659-4.484c0.226-0.415,0.686-1.262,0.91-1.678c-0.097,0.028-0.197,0.048-0.296,0.075l1.396-2.349
	c0.25-0.124,0.497-0.254,0.74-0.396c0.461-0.739,0.921-1.479,1.398-2.209c-0.883-0.92-1.75-1.84-2.616-2.769
	c-2.048-0.289-4.537-0.055-5.493-2.328c0.703-0.027,2.12-0.1,2.823-0.127c0.334-0.379,0.993-1.127,1.317-1.498
	c1.533,0.171,4.429,1.886,4.23-0.902c1.488-0.216,3.059-0.189,4.501-0.695c1.335-0.514,0.947-2.192,1.281-3.284
	c-2.462,0.83-5.053,1.705-6.639,3.906c-1.615-0.333-3.266-0.595-4.899-0.28c-1.209-0.369-2.399-0.767-3.581-1.146
	c-0.199-1.001-0.389-1.994-0.569-2.986c-1.804-0.875-3.671-1.615-5.366-2.679c-1.589-1.119-2.111-3.112-2.96-4.754
	c1.119-1.587,2.905-1.849,4.701-2.002c2.165-0.74,0.369-2.995-0.01-4.375c-1.479,1.759-2.39,4.727-5.097,4.746
	c-0.036-0.641-0.118-1.921-0.153-2.553c-1.182-0.352-2.354-0.695-3.527-1.028c0.542,1.651,1.426,3.13,2.716,4.312
	c-1.022,1.382-1.945,2.871-2.613,4.449l-1.604-1.874c0.137-0.271,0.271-0.545,0.41-0.816c-1.208-3.5-4.383-6.197-4.798-9.914
	c0.739,0.027,2.236,0.081,2.986,0.108c-0.316-1.029-0.614-2.057-0.912-3.086c1.426,0.361,2.859,0.722,4.295,1.056
	c-1.327-1.769-3.022-3.194-4.565-4.754c-0.334-0.947,0.144-2.066,0.921-2.644c3.364-0.785,6.792-1.353,10.238-1.696
	c0.361-0.451,1.083-1.362,1.444-1.813c-2.932-2.995-7.514-0.541-10.942,0.217c0.199-2.652,2.209-3.762,4.709-3.654
	c-2.138-0.938-4.167-2.075-6.099-3.365c-0.667,1.353-1.335,2.715-1.993,4.078c-1.092,0.334-2.175,0.667-3.257,1.001
	c1.271-1.931,2.951-3.735,3.203-6.144l0.73-0.794c-0.008-1.236-0.002-2.472-0.006-3.708l3.7-2.5
	c0.291,0.892,1.119,1.832,3.881,1.761c2.964-0.076,6.842,5.586,6.839,5.808c-0.004,0.221,3.204-3.451,3.204-3.451
	s-0.267-0.195-0.669-0.491l0.439-0.278l2.928,1.963l7.325-13.583l-5.064-0.467l-0.712-1.469c0.594,0.203,1.178,0.403,1.646,0.671
	c-0.643-1.849-2.134-3.343-2.933-5.1l-0.216-3.973c0.012-0.055,0.021-0.11,0.035-0.165l0.147-0.538
	c0.612-2.099,1.689-4.073,2.803-5.949c-0.489-0.248-0.965-0.51-1.438-0.778v-2.646c0.308,0.2,0.612,0.401,0.921,0.602
	c0.271-0.343,0.82-1.02,1.101-1.363c-0.577-1.037-1.758-1.867-1.731-3.148c0.531-0.749,1.173-1.417,1.795-2.093
	c-0.347-0.201-0.678-0.424-0.992-0.667l1.343-2.28c0.474,0.527,0.809,0.871,0.857,0.857c0.192-0.06,3.967,1.881,3.967,1.881
	l-1.394-2.071l1.553,2.232c-0.159-0.162,5.31-6.049,5.31-6.049s3.252,0.3,3.402,0.33c0.151,0.028,3.301-2.412,3.586-3.187
	c0.03-0.084,0.014-0.277-0.039-0.542l1.729-0.399l0.223,0.613c0,0,5.536,1.636,8.21,2.832c2.899-2.75,4.266-7,4.266-7
	s-0.544-0.318-1.494-0.74l0.519-1.627c0.732,0.291,1.46,0.582,2.197,0.874c1.253-0.721,2.547-1.479,3.753-2.341
	c0.005-0.003,0.009-0.004,0.014-0.009c0.004-0.002,0.007-0.006,0.011-0.008c1.791-1.285,3.378-2.809,4.351-4.796
	c1.621-2.209,2.85-4.239,2.85-4.239c0.069-0.054,0.139-0.107,0.209-0.161c-0.353-1.723-0.046-3.753-1.164-5.215
	c-1.228-0.55-2.563-0.685-3.861-0.902c-1.426,2.859-3.419,5.431-4.447,8.489c-1.368,0.297-2.361,1.005-3.145,1.928l-1.798-1.114
	c0.232-0.867,0.477-1.729,0.783-2.56c-1.001-1.561-1.127-3.338-0.324-4.998c-0.47-0.244-1.425-0.74-1.902-0.993
	c1.794-0.803,3.563-1.669,5.304-2.58c0.487-1.173,0.983-2.346,1.471-3.518c-1.759,1.164-3.094,3.816-5.548,3.031
	c0.523-1.263,1.056-2.508,1.579-3.771c-2.761,0.515-2.075,5.106-5.26,4.925c0.389-1.605,0.83-3.184,1.281-4.771
	c-0.739-1.155-1.497-2.292-2.255-3.428c-0.658,0.947-1.497,1.732-2.265,2.58c-0.301,1.374-0.107,2.898-0.709,4.186l-0.888-2.354
	c0.258-1.052,0.334-2.14,0.127-3.266c-0.22-0.106-0.443-0.201-0.666-0.299l0.222-1.583c0.515,0.206,1.026,0.425,1.526,0.675
	c-0.491-1.572-0.426-3.14-0.21-4.711c0.262-0.002,0.563-0.004,0.876-0.003l-0.057,0.917c0.015,0.006,0.033,0.014,0.056,0.022
	c0.852,0.339,7.337,2.806,7.433,2.828c0.1,0.023,1.726,0.388,1.726,0.388s1.781-2.099,3.177-3.067
	c1.396-0.969,6.213-0.797,6.212-0.808c-0.002-0.011,8.199-0.797,10.378-1.827c2.178-1.03,4.887-2.993,7.647-4.984
	c0.09-1.917-3.737-5.813-3.737-5.813l1.845-0.413c0.528,0.68,1.128,1.333,1.803,1.874c2.893,2.323,3.033,4.79,3.033,4.79
	s5.31-1.416,7.265-2.017c1.954-0.601,5.449-1.955,6.652-2.48c1.204-0.526,2.707-1.228,2.707-1.228l3.763,2.018l3.283-2.956
	c0,0-3.476-1.766-5.552-3.19c-0.771-0.529-1.428-1.245-1.992-1.953l0.467-0.197c1.436,2.331,4.842,2.526,6.954,4.183
	c1.624,0.848,1.524,2.842,1.922,4.393c1.497-0.839,3.022-1.642,4.547-2.463c0.929-1.642,2.21-3.04,3.735-4.159
	c-0.036-2.318,0.757-4.465,1.957-6.405c-3.019-0.93-6.037-1.88-9.086-2.706l-0.148-0.977c0.274-0.42,0.813-1.241,1.079-1.65
	c-0.217-0.379-0.658-1.146-0.884-1.534c1.796-0.352,1.598-2.075,1.76-3.482c0.586,0.135,1.759,0.388,2.345,0.523
	c-0.343,2.444-1.37,4.672-2.553,6.811c2.814,0.632,5.558,1.615,8.408,2.156l0.541-0.911c-0.522-0.325-1.569-0.975-2.093-1.299
	c-0.107-0.568-0.316-1.705-0.425-2.273c-1.145-0.388-2.309-0.767-3.444-1.137c-0.072-1.137-0.136-2.283-0.199-3.419l1.687,0.171
	c-0.271-0.56-0.532-1.119-0.784-1.678c-1.183-0.388-4.312,0.802-3.554-1.552c1.092-0.613,2.2-1.208,3.283-1.849
	c0.271,0.307,0.821,0.92,1.092,1.227c0.072-0.542,0.208-1.624,0.271-2.165c-1.246,0.316-2.5,0.577-3.743,0.83
	c0.729-1.561,1.551-3.085,2.372-4.61c1.372-0.235,2.751-0.46,4.141-0.704c-3.311-2.958-8.064-2.95-11.402-5.81
	c-0.47,0.487-0.921,0.983-1.372,1.47c0.677,0.072,2.012,0.208,2.68,0.28c0.64,0.668,1.29,1.335,1.948,1.994
	c-0.01,1.228-0.019,2.463-0.019,3.69c-1.083-1.191-1.912-2.742-3.519-3.293c0.325,1.074,0.65,2.147,0.994,3.221
	c-0.65-0.271-1.94-0.812-2.59-1.083c-0.425,0.604-0.856,1.191-1.299,1.777c-1.036-0.542-2.03-1.127-3.04-1.705
	c0.722,0.542,1.255,1.236,1.588,2.075c-0.258,0.458-0.716,1.246-1.081,1.876l-3.261-0.639c0.138-0.278,0.281-0.554,0.4-0.84
	c0.432-1.155-0.659-2.084-1.002-3.094c-0.106,0.03-0.21,0.061-0.316,0.09l-1.35-1.497c0.098,0.01,0.188,0.019,0.269,0.026
	c-0.866-1.146-2.87-1.886-2.347-3.636c-0.613,0.126-1.822,0.378-2.435,0.514c-1.517-1.217-2.733-2.877-1.86-4.898
	c-1.094,0.078-2.178,0.15-3.261,0.22l-1.574-1.402c0.746-0.607,1.548-1.146,2.4-1.588c0.821-0.378,1.426-0.974,1.831-1.804
	c4.926,0.821,8.895,4.132,13.541,5.801c-1.543-2.21-3.004-4.528-5.034-6.333c-2.589-1.155-5.827-0.677-7.984-2.743
	c-1.47-1.579-3.671-1.118-5.583-1.236c0.578,1.624,1.146,3.248,1.506,4.944c-1.938-0.65-2.588-2.644-3.526-4.24
	c-0.784,1.444-1.254,3.428-3.293,3.347c0.623-1.579,1.327-3.131,2.058-4.673c-0.433-0.063-1.299-0.189-1.732-0.252
	c-0.036,1.209-0.055,2.418-0.063,3.626c-1.028,0.036-2.038,0.072-3.039,0.108c0.162,1.281,0.424,2.688-1.291,2.851
	c-0.072-0.523-0.226-1.569-0.298-2.084c-1.975,0.596-4.24,0.803-5.638,2.508c-0.133,0.109-0.259,0.226-0.376,0.348l-2.377-0.045
	c0.632-1.023,1.453-1.881,2.581-2.405c2.056-1.759,5.024-1.769,6.929-3.825c0.532-1.75,0.785-3.563,0.081-5.313
	c2.039,0.686,4.114,1.263,6.252,1.615c-0.641-1.841-1.407-3.618-2.2-5.386c-2.913-0.289-4.674,2.237-6.441,4.105
	c-1.724,0.271-2.86,1.497-3.771,2.878c-1.66,0.324-1.579-2.192-2.364-3.185c0.849-0.459,1.589-1.055,2.229-1.777
	c-1.354-0.496-2.193-1.498-2.157-2.95c0.695-0.027,2.103-0.082,2.806-0.108c0.505,0.568,1.02,1.127,1.533,1.696
	c0.072-1.714,0.171-3.428,0.271-5.142c-1.109-0.442-2.209-0.875-3.311-1.309c-0.136-0.271-0.267-0.545-0.401-0.815
	c0.47-1.598,4.951-4.623,4.332-4.593c0.564-0.147,1.117-0.343,1.653-0.618h-6.406v-5.012h0.678l3.608-7.668l1.202-10.074
	l-5.111-3.909l7.668-6.466l-2.706-25.861l-12.329,5.262c0,0-12.93-11.126-17.892-11.276c-4.962-0.151-20.612,9.623-24.972,9.623
	c-4.36,0-17.893,2.557-19.096,5.714c-1.202,3.158-8.119,19.847-8.119,19.847l-21.541-6.315c0,0-14.092,7.217-14.844,9.322
	c-0.751,2.104-3.147,6.014-3.147,6.014l1.795,20.799l-13.081-3.057c0,0-8.34,1.111-9.554,3.759l0.676,2.439l-2.116-0.548
	c-0.301-0.93-0.652-1.855-0.742-2.592h-5.983l-5.299-3.421l3.42,3.421h-6.842c3.301,2.273,7.135,3.5,10.979,4.52
	c0.063-0.063,0.133-0.122,0.199-0.184l1.68,1.68c-0.125,0.077-0.243,0.16-0.362,0.242h-9.238H161.606l-38.133-1.29l-50.067-1.861
	L8.96,81.305l-54.127-1.692l-71.549-1.466l-13.532,48.827l-12.348,45.5l-10.657,39.074l-11.897,43.64l-11.671,42.005l-11.502,42.907
	l-8.457,30.897l3.947,15.9l19.678-0.396l126.466,4.68l77.977,1.636l-0.79,16.914l16.408-2.537l3.665-14.151l13.476-0.677
	l34.731,2.932l0.451,2.256l8.345,0.338l2.819-2.427l12.517-1.709h43.133l34.801,0.941c2.012,0.167,4.152,0.298,6.743,0.32
	c0-0.046,0-0.093,0.001-0.139l66.461,1.799c4.302,0.344,8.629,0.377,12.961,0.351l0.061,0.002l28.893,0.546
	c6.337,0.291,12.676,0.553,19.028,0.418c-0.005-0.018-0.01-0.037-0.015-0.057l2.747,0.053c7.837,0.508,15.762,0.355,23.627,0.511
	c-0.005-0.021-0.01-0.042-0.015-0.063l2.275,0.043c0.634,1.168,0.954,2.441,1.069,3.769v2.954
	c12.603-0.531,25.214-1.164,37.844-1.02c-0.007-0.241-0.016-0.483-0.021-0.725l1.711-0.079c0.026,0.114,0.042,0.229,0.071,0.344
	c9.31-0.035,18.619-0.532,27.929-0.604c0.008-0.344,0.01-0.688,0.018-1.032l1.734-0.081c0.009,0.257,0.016,0.515,0.025,0.771
	c2.652,0.116,5.296,0.009,7.93-0.326c-0.01-0.27-0.017-0.539-0.027-0.811l1.235-0.056c0,0.305,0,0.609,0,0.912
	c6.63,0.028,13.262,0.009,19.829-1.091c0.001-0.244,0.003-0.491,0.005-0.734l1.734-0.081c0.003,0.309,0.009,0.616,0.011,0.923
	c3.834-0.162,7.668-0.333,11.512-0.297c0.081-0.388,0.135-0.777,0.207-1.167l1.741-0.081c-0.017,0.356-0.026,0.712-0.044,1.067
	c5.467-0.081,10.933-0.343,16.401-0.387c2.924-0.067,5.983,0.312,8.82-0.45l0.008,1.476c-0.159,0.06-0.317,0.123-0.475,0.183
	c0.072,4.682,0.063,9.354,0.009,14.038c0.181,0.022,0.359,0.027,0.539,0.042l0.005,1.019c-0.182,0.003-0.364,0.003-0.544,0.012
	c0.216,9.602-0.279,19.189-0.072,28.787c0.252-0.184,0.508-0.366,0.761-0.55l0.01,2.001c-0.197,0.21-0.391,0.425-0.573,0.652
	c-0.459,2.895-0.18,5.836-0.126,8.75c0.248-0.041,0.499-0.081,0.746-0.12l0.006-0.002c5.208-0.844,10.418-1.692,15.63-2.522v1.547
	l-2.979,0.419l-1.504,6.016l3.309,7.968l-3.158,7.668l1.503,4.813l-3.758,3.756l3.007,6.016c0,0-2.706,5.563,0,6.766
	c2.706,1.204,4.21,7.328,4.21,7.328l4.82,2.629l0,0l17.583,9.585l19.872,34.43l7.342,1.503l-0.752,1.956l13.833,3.457l-0.603,10.225
	l-1.353,13.531l4.21,12.179c0,0,3.758,36.385,3.909,34.28c0.15-2.105,12.93-3.007,19.695-2.255c6.767,0.751,5.413,8.72,6.466,8.72
	s1.504-3.459,3.007-6.465c1.503-3.007,3.459-5.412,5.112-5.863s10.073,3.908,9.923-1.054s0.15-10.825,3.909-6.163
	c3.758,4.66,6.616,6.766,6.466,2.855c-0.151-3.907,6.916-6.915,6.465-9.171c-0.451-2.255-4.511-12.328-6.766-15.034
	c-2.256-2.706-3.157-4.511-2.406-6.616c0.752-2.105,6.917,5.863,7.818,5.263c0.902-0.601,1.053-8.271,1.053-11.577
	c0-3.31,3.308-3.759,5.563,0.901c2.256,4.661,4.211,5.864,4.511,3.759c0.301-2.104-4.06-9.021-3.308-11.276
	c0.751-2.256,5.714-3.006,9.472-3.308c3.759-0.301,6.466,13.382,6.616,13.983c0.151,0.601,3.007,5.111,3.007,5.111
	s0.902-7.968-0.451-12.63c-1.353-4.66-1.954-5.563-1.954-5.563s5.412,2.405,10.374,1.354c4.962-1.054,6.165-1.052,6.165-1.052
	s0.902-2.256-0.15-5.264s-4.962-3.909-4.962-3.909l2.104-3.457l8.721,1.954c0,0,9.772,0.601,11.276-0.151
	c1.504-0.753-0.301-10.224-0.301-10.224s2.405-1.504,4.661-3.608c2.255-2.105,9.622,0.3,5.112-2.706
	c-4.511-3.008,0.751-1.054,2.556-6.165c1.804-5.111-1.954-6.014,0.752-12.63c2.706-6.614,4.36-0.451,7.668-0.149
	c3.309,0.3,2.405,1.354,6.766,4.962c4.361,3.608,4.962,1.652,7.066-1.054c2.104-2.707-3.007-2.707-3.458-7.065
	c-0.45-4.361,12.63-3.608,8.57,0.149c-4.06,3.76,0.149,4.962,5.864,7.217c5.714,2.256,0.844,9.171,0.844,9.171l-13.173,7.819
	l6.766,7.067l-5.563,0.902l6.014,2.254l3.308,3.159l-8.27,4.358l3.608,7.97l-3.157,8.269c0,0,0.3,11.728-1.203,16.99
	c-1.503,5.262-5.863,12.479-5.863,12.479l-11.427,8.722l-17.29,13.08l-29.62,19.244l-30.07,9.322l-0.451,6.465l47.962-15.485
	l36.986-28.117l-0.3-3.608c0,0-2.406-4.962,10.524-0.751c9.322-9.473,36.234-14.434,40.596-11.276
	c5.714-1.203,10.825-2.407,15.636-2.858c4.812-0.45,11.578-15.635,12.329-18.792c0.752-3.158,5.714-9.173,9.473-14.284
	c3.759-5.113,5.112-3.459,6.615,1.203c1.503,4.66-1.202,6.465-1.354,7.968c-0.15,1.505,3.76-0.902,9.323-2.707
	c5.563-1.804,2.855-5.712,4.359-9.472c1.504-3.759,17.892,4.662,18.343,2.105s9.322-1.203,9.923-2.105
	c0.602-0.902-1.202-3.457-0.751-4.66c0.451-1.204,9.772,1.954,9.772,1.954l-3.007,4.211c0,0-4.661,1.503-6.015,3.758
	c-1.353,2.256,2.707,5.413,3.459,5.263c0.753-0.149,1.503-3.76,1.954-5.563c0.451-1.805,20.298-10.375,22.102-11.728
	c1.805-1.354,15.938,0,15.938,0s20.599-5.563,22.704-6.614c2.105-1.053,9.923-5.113,22.252-2.407s12.779,7.519,12.779,7.519
	s7.518-9.171,5.413-11.728s-0.301-9.622-0.15-10.524s-6.315-5.564-8.27-6.917c-1.955-1.354-5.263,1.353-7.668,1.955
	c-2.406,0.602,0.752-6.766,1.353-8.871s6.917-0.752,7.819-1.654c0.901-0.902-0.603-5.262-0.603-5.262l5.264-4.961l5.863,35.783
	l1.052,1.052c0,0,0.341-13.491,0.335-26.763C978.2,518.348,978.115,511.961,977.869,507.197z M735.683,382.678
	c0.024-0.001,0.048,0,0.073-0.001c-0.158,0.792-0.164,2.358-0.789,2.781L735.683,382.678z M687.018,81.076
	c-0.319,0.114-0.661,0.167-1.008,0.18C686.349,81.212,686.686,81.153,687.018,81.076z M542.041,82.575l-0.101-0.026
	c0.055-0.039,0.102-0.084,0.158-0.123C542.08,82.477,542.06,82.525,542.041,82.575z"/>
</svg>
