<?xml version="1.0" encoding="utf-8"?>
<!-- Generator: Adobe Illustrator 16.0.0, SVG Export Plug-In . SVG Version: 6.00 Build 0)  -->
<!DOCTYPE svg PUBLIC "-//W3C//DTD SVG 1.1//EN" "http://www.w3.org/Graphics/SVG/1.1/DTD/svg11.dtd">
<svg version="1.1" id="Your_Icon" xmlns="http://www.w3.org/2000/svg" xmlns:xlink="http://www.w3.org/1999/xlink" x="0px" y="0px"
	 width="129px" height="146px" viewBox="0 0 129 146" enable-background="new 0 0 129 146" xml:space="preserve">
<path fill="#F8D000" d="M85.072,89.726c-12.526,0-23.524-7.583-28.074-19.046c-0.848-0.002-0.584-0.024-1.633-0.008l1.4,22.159
	c5.141,2.662,8.114,4.207,8.114,10.385l-0.048,35.886h41.259c2.44,0,4.548-1.979,4.703-4.42l4.017-64.116c-0.535,0-1.068,0-1.605,0
	C108.678,82.103,97.631,89.726,85.072,89.726z"/>
<path fill="#A09720" d="M85.072,89.726c-12.526,0-23.524-7.583-28.074-19.046c-0.848-0.002-0.584-0.024-1.633-0.008l1.4,22.159
	c5.141,2.662,8.114,4.207,8.114,10.385l-0.048,1.357c4.502-12.239,13.191-11.164,21.335-11.164c10.389,0,21.167-0.742,26.711,7.988
	l1.933-30.833c-0.535,0-1.068,0-1.605,0C108.678,82.103,97.631,89.726,85.072,89.726z"/>
<path fill="#A09720" d="M61.916,70.565c4.271,8.775,13.146,14.449,23.173,14.449c10.009,0,18.891-5.68,23.166-14.449H61.916z"/>
<path fill="#8B8600" d="M116.779,63.921H53.396c-1.836,0-3.319,1.484-3.319,3.322c0,1.83,1.483,3.321,3.319,3.321h1.953l1.595-0.001
	h1.984h2.835h46.647h1.422h3.404l1.592,0.001h1.949c1.834,0,3.322-1.491,3.322-3.321C120.101,65.405,118.611,63.921,116.779,63.921z
	"/>
<path fill="#403409" d="M42.986,7.678c0-1.562-1.27-2.831-2.832-2.831s-2.832,1.27-2.832,2.831v83.718h5.664V7.678z"/>
<rect x="18.896" y="118.589" fill="#FFFFFF" width="2.835" height="20.478"/>
<rect x="35.902" y="118.589" fill="#FFFFFF" width="2.836" height="20.478"/>
<path fill="#403409" d="M50.716,93.409H29.597c-5.912,0-10.701,4.791-10.701,10.701v11.643h42.517V104.11
	C61.412,98.2,56.625,93.409,50.716,93.409z"/>
<rect x="58.578" y="118.589" fill="#FFFFFF" width="2.834" height="20.478"/>
<rect x="52.908" y="118.589" fill="#FFFFFF" width="2.834" height="20.478"/>
<rect x="30.232" y="118.589" fill="#FFFFFF" width="2.836" height="20.478"/>
<rect x="24.563" y="118.589" fill="#FFFFFF" width="2.834" height="20.478"/>
<rect x="47.24" y="118.589" fill="#FFFFFF" width="2.836" height="20.478"/>
<rect x="41.57" y="118.589" fill="#FFFFFF" width="2.836" height="20.478"/>
<path fill="#F8D000" d="M50.074,67.243H120.1c0-1.838-1.488-3.321-3.322-3.321H53.396C51.56,63.921,50.078,65.405,50.074,67.243z"/>
<path fill="#564E05" d="M105.435,75.095c1.081-1.395,2.027-2.908,2.82-4.529H61.916c0.791,1.621,1.736,3.137,2.82,4.529H105.435z"/>
<path fill="#7C6A1E" d="M42.986,7.667c0-1.484-1.146-2.703-2.604-2.82c-0.146,0.343-0.229,0.719-0.229,1.115v85.434h2.832V7.667z"/>
<path fill="#564E05" d="M56.998,70.61c-0.85-0.005-0.586-0.029-1.633-0.01l0.271,4.466h3.565
	C58.357,73.659,57.617,72.171,56.998,70.61z"/>
<path fill="#564E05" d="M110.955,75.095h3.57l0.284-4.529h-1.621C112.564,72.153,111.816,73.667,110.955,75.095z"/>
</svg>
