<?xml version="1.0" encoding="utf-8"?>
<!-- Generator: Adobe Illustrator 16.0.0, SVG Export Plug-In . SVG Version: 6.00 Build 0)  -->
<!DOCTYPE svg PUBLIC "-//W3C//DTD SVG 1.1//EN" "http://www.w3.org/Graphics/SVG/1.1/DTD/svg11.dtd">
<svg version="1.1" id="Your_Icon" xmlns="http://www.w3.org/2000/svg" xmlns:xlink="http://www.w3.org/1999/xlink" x="0px" y="0px"
	 width="129px" height="146px" viewBox="38.5 108.5 129 146" enable-background="new 38.5 108.5 129 146" xml:space="preserve">
<g>
	<rect x="60.86" y="113.337" fill="#CECDC4" width="51.333" height="122.333"/>
	<rect x="86.527" y="113.337" fill="#B8F4EC" width="74.333" height="122.333"/>
	<rect x="60.86" y="113.337" fill="#84837A" width="24.823" height="122.333"/>
	<g>
		<line fill="none" stroke="#CECDC4" stroke-width="2" stroke-miterlimit="10" x1="60.86" y1="113.337" x2="160.86" y2="113.337"/>
		<line fill="none" stroke="#CECDC4" stroke-width="2" stroke-miterlimit="10" x1="60.86" y1="127.671" x2="160.86" y2="127.671"/>
		<line fill="none" stroke="#CECDC4" stroke-width="2" stroke-miterlimit="10" x1="60.86" y1="142.005" x2="160.86" y2="142.005"/>
		<line fill="none" stroke="#CECDC4" stroke-width="2" stroke-miterlimit="10" x1="60.86" y1="156.339" x2="160.86" y2="156.339"/>
		<line fill="none" stroke="#CECDC4" stroke-width="2" stroke-miterlimit="10" x1="60.86" y1="170.673" x2="160.86" y2="170.673"/>
		<line fill="none" stroke="#CECDC4" stroke-width="2" stroke-miterlimit="10" x1="60.86" y1="185.007" x2="160.86" y2="185.007"/>
		<line fill="none" stroke="#CECDC4" stroke-width="2" stroke-miterlimit="10" x1="60.86" y1="199.341" x2="160.86" y2="199.341"/>
		<line fill="none" stroke="#CECDC4" stroke-width="2" stroke-miterlimit="10" x1="60.86" y1="213.675" x2="160.86" y2="213.675"/>
		<line fill="none" stroke="#CECDC4" stroke-width="2" stroke-miterlimit="10" x1="60.86" y1="228.009" x2="160.86" y2="228.009"/>
	</g>
</g>
<rect x="44.421" y="196.75" fill="#564E05" width="45.689" height="42.75"/>
<rect x="65.444" y="196.75" fill="#F4E890" width="76.166" height="42.75"/>
<rect x="106.61" y="218" fill="#564E05" width="13.713" height="21.5"/>
<rect x="106.61" y="218.833" fill="#C9B314" width="12.667" height="20.667"/>
<polygon fill="#C9B314" points="141.61,200.614 65.444,200.614 65.444,196.75 143.36,196.75 "/>
<polygon fill="#564E05" points="65.444,200.614 65.329,200.614 65.188,196.75 67.194,196.75 "/>
<rect x="68.485" y="213.834" fill="#FFFFFF" width="35.917" height="16.167"/>
<rect x="121.622" y="213.834" fill="#FFFFFF" width="19.279" height="16.167"/>
<polygon fill="#CECDC4" points="94.859,230.001 104.443,220.417 104.443,223.417 97.84,230.021 "/>
<polygon fill="#CECDC4" points="131.262,230.001 140.846,220.417 140.846,223.417 134.242,230.021 "/>
<polyline fill="#9E8D26" points="65.444,203.5 65.444,216.167 72.777,216.167 72.777,203.5 "/>
<rect x="72.777" y="214.667" fill="#564E05" width="76.166" height="1.5"/>
<polygon fill="#C9B314" points="65.444,203.5 141.61,203.5 148.943,214.667 72.777,214.667 "/>
<text transform="matrix(1 0 0 1 130.3867 130.415)" fill="#564E05" font-family="'ONRAMP'" font-size="32.4173">HQ</text>
<text transform="matrix(1 0 0 1 132.1367 130.415)" fill="#C9B314" font-family="'ONRAMP'" font-size="32.4173">HQ</text>
</svg>
