<?xml version="1.0" encoding="utf-8"?>
<!-- Generator: Adobe Illustrator 16.0.0, SVG Export Plug-In . SVG Version: 6.00 Build 0)  -->
<!DOCTYPE svg PUBLIC "-//W3C//DTD SVG 1.1//EN" "http://www.w3.org/Graphics/SVG/1.1/DTD/svg11.dtd">
<svg version="1.1" id="Your_Icon" xmlns="http://www.w3.org/2000/svg" xmlns:xlink="http://www.w3.org/1999/xlink" x="0px" y="0px"
	 width="129px" height="146px" viewBox="38.5 108.5 129 146" enable-background="new 38.5 108.5 129 146" xml:space="preserve">
<rect x="94.144" y="219.482" fill="#F4E890" width="17.712" height="28.105"/>
<rect x="129.567" y="163.271" fill="#F4E890" width="17.711" height="28.105"/>
<rect x="76.432" y="219.482" fill="#F4E890" width="17.712" height="28.105"/>
<rect x="58.721" y="219.482" fill="#F4E890" width="17.711" height="28.105"/>
<rect x="129.567" y="219.482" fill="#F4E890" width="17.711" height="28.105"/>
<rect x="58.721" y="191.377" fill="#F4E890" width="17.711" height="28.105"/>
<rect x="129.567" y="191.377" fill="#F4E890" width="17.711" height="28.105"/>
<rect x="111.855" y="219.482" fill="#F4E890" width="17.712" height="28.105"/>
<rect x="111.855" y="191.377" fill="#F4E890" width="17.712" height="28.105"/>
<rect x="94.144" y="191.377" fill="#F4E890" width="17.712" height="28.105"/>
<rect x="111.855" y="163.271" fill="#C9B314" width="17.712" height="28.105"/>
<rect x="94.144" y="163.271" fill="#F4E890" width="17.712" height="28.105"/>
<rect x="58.721" y="163.271" fill="#F4E890" width="17.711" height="28.105"/>
<rect x="76.432" y="163.271" fill="#F4E890" width="17.712" height="28.105"/>
<rect x="76.432" y="191.377" fill="#F4E890" width="17.712" height="28.105"/>
<rect x="41.009" y="191.377" fill="#F4E890" width="17.712" height="28.105"/>
<rect x="147.278" y="219.482" fill="#F4E890" width="17.712" height="28.105"/>
<rect x="41.009" y="219.482" fill="#F4E890" width="17.712" height="28.105"/>
<polygon fill="#F4E890" points="147.278,247.592 147.278,247.588 129.567,247.588 129.567,247.592 129.567,247.588 111.855,247.588 
	111.855,247.592 111.855,247.588 94.144,247.588 94.144,247.592 94.144,247.588 76.432,247.588 76.432,247.592 76.432,247.588 
	58.721,247.588 58.721,247.592 58.721,247.588 41.009,247.588 41.009,247.592 41.009,247.593 164.99,247.593 164.99,247.592 
	164.99,247.588 147.278,247.588 "/>
<rect x="147.278" y="135.167" fill="#F4E890" width="17.712" height="28.104"/>
<rect x="147.278" y="163.271" fill="#F4E890" width="17.712" height="28.105"/>
<rect x="147.278" y="191.377" fill="#F4E890" width="17.712" height="28.105"/>
<rect x="129.567" y="135.167" fill="#F4E890" width="17.711" height="28.104"/>
<rect x="41.009" y="163.271" fill="#F4E890" width="17.712" height="28.105"/>
<rect x="94.144" y="135.167" fill="#F4E890" width="17.712" height="28.104"/>
<rect x="111.855" y="135.167" fill="#F4E890" width="17.712" height="28.104"/>
<rect x="76.432" y="135.167" fill="#F4E890" width="17.712" height="28.104"/>
<rect x="58.721" y="135.167" fill="#F4E890" width="17.711" height="28.104"/>
<rect x="41.009" y="135.167" fill="#F4E890" width="17.712" height="28.104"/>
<rect x="40.853" y="113.373" fill="#C9B314" width="123.981" height="21.794"/>
<g>
	<line fill="none" stroke="#FFFFFF" stroke-miterlimit="10" x1="40.853" y1="135.167" x2="40.853" y2="247.592"/>
	<line fill="none" stroke="#FFFFFF" stroke-miterlimit="10" x1="58.564" y1="135.167" x2="58.564" y2="247.592"/>
	<line fill="none" stroke="#FFFFFF" stroke-miterlimit="10" x1="76.275" y1="135.167" x2="76.275" y2="247.592"/>
	<line fill="none" stroke="#FFFFFF" stroke-miterlimit="10" x1="93.987" y1="135.167" x2="93.987" y2="247.592"/>
	<line fill="none" stroke="#FFFFFF" stroke-miterlimit="10" x1="111.699" y1="135.167" x2="111.699" y2="247.592"/>
	<line fill="none" stroke="#FFFFFF" stroke-miterlimit="10" x1="129.41" y1="135.167" x2="129.41" y2="247.592"/>
	<line fill="none" stroke="#FFFFFF" stroke-miterlimit="10" x1="147.122" y1="135.167" x2="147.122" y2="247.592"/>
	<line fill="none" stroke="#FFFFFF" stroke-miterlimit="10" x1="164.834" y1="135.167" x2="164.834" y2="247.592"/>
</g>
<g>
	<line fill="none" stroke="#FFFFFF" stroke-miterlimit="10" x1="40.853" y1="135.167" x2="164.834" y2="135.167"/>
	<line fill="none" stroke="#FFFFFF" stroke-miterlimit="10" x1="40.853" y1="163.271" x2="164.834" y2="163.271"/>
	<line fill="none" stroke="#FFFFFF" stroke-miterlimit="10" x1="40.853" y1="191.377" x2="164.834" y2="191.377"/>
	<line fill="none" stroke="#FFFFFF" stroke-miterlimit="10" x1="40.853" y1="219.482" x2="164.834" y2="219.482"/>
	<line fill="none" stroke="#FFFFFF" stroke-miterlimit="10" x1="40.853" y1="247.588" x2="164.834" y2="247.588"/>
</g>
<text transform="matrix(1 0 0 1 74.251 128.6973)" fill="#FFFFFF" font-family="'MyriadPro-Regular'" font-size="17.2898">January</text>
<polygon fill="#C9B314" points="164.834,220 137.246,247.588 137.246,220 "/>
<polygon fill="#564E05" points="137.246,247.329 164.834,219.741 164.834,247.329 "/>
</svg>
