<?xml version="1.0" encoding="utf-8"?>
<!-- Generator: Adobe Illustrator 16.0.0, SVG Export Plug-In . SVG Version: 6.00 Build 0)  -->
<!DOCTYPE svg PUBLIC "-//W3C//DTD SVG 1.1//EN" "http://www.w3.org/Graphics/SVG/1.1/DTD/svg11.dtd">
<svg version="1.1" id="Your_Icon" xmlns="http://www.w3.org/2000/svg" xmlns:xlink="http://www.w3.org/1999/xlink" x="0px" y="0px"
	 width="3472px" height="1932px" viewBox="-1649.5 -1137.5 3472 1932" enable-background="new -1649.5 -1137.5 3472 1932"
	 xml:space="preserve">
<path fill="#F8D000" d="M714.296,280.188c-87.843,0-164.984-53.184-196.89-133.576c-5.955-0.027-4.094-0.188-11.438-0.063
	l5.626,92.717c36.041,18.666,60.756,56.283,60.756,99.607V626.46h289.352c17.119,0,31.893-13.881,32.984-31l28.172-449.66
	c-3.754,0-7.509,0-11.263,0C879.841,226.726,802.37,280.188,714.296,280.188z"/>
<path fill="#8B8600" d="M714.296,280.188c-87.843,0-164.984-53.184-196.89-133.576c-5.955-0.027-4.094-0.188-11.438-0.063
	l5.626,92.717c36.041,18.666,60.756,56.283,60.756,99.607v45.441c42.386,24.331,95.088,38.756,152.206,38.756
	c72.853,0,138.516-23.467,184.754-61.029L922.858,145.8c-3.754,0-7.509,0-11.263,0C879.841,226.726,802.37,280.188,714.296,280.188z
	"/>
<path fill="#8B8600" d="M551.912,145.8c29.951,61.536,92.191,101.34,162.496,101.34c70.192,0,132.496-39.83,162.467-101.34H551.912z
	"/>
<path fill="#8B8600" d="M936.65,99.2H492.139c-12.865,0-23.271,10.426-23.271,23.311c0,12.836,10.406,23.289,23.271,23.289h13.709
	l11.176-0.01h13.922h19.869h327.16h9.971h23.877l11.166,0.01h13.662c12.865,0,23.311-10.453,23.311-23.289
	C959.961,109.626,949.516,99.2,936.65,99.2z"/>
<path fill="#564A09" d="M-1154.354-862.889c0-12.855-10.434-23.299-23.309-23.299c-12.846,0-23.291,10.443-23.291,23.299v688.756
	h46.6V-862.889z"/>
<path fill="#403409" d="M400.306-454.777c0-12.855-10.434-23.299-23.309-23.299c-12.846,0-23.291,10.443-23.291,23.299v688.756h46.6
	V-454.777z"/>
<rect x="202.109" y="457.688" fill="#CECABA" width="23.318" height="168.473"/>
<rect x="342.023" y="457.688" fill="#CECABA" width="23.338" height="168.473"/>
<path fill="#403409" d="M463.896,250.541H290.145c-48.633,0-88.035,39.422-88.035,88.025v95.783h349.793v-95.783
	C551.912,289.963,512.52,250.541,463.896,250.541z"/>
<rect x="528.584" y="457.688" fill="#CECABA" width="23.328" height="168.473"/>
<rect x="481.938" y="457.688" fill="#CECABA" width="23.309" height="168.473"/>
<rect x="295.385" y="457.688" fill="#CECABA" width="23.328" height="168.473"/>
<rect x="248.748" y="457.688" fill="#CECABA" width="23.309" height="168.473"/>
<rect x="435.309" y="457.688" fill="#CECABA" width="23.328" height="168.473"/>
<rect x="388.66" y="457.688" fill="#CECABA" width="23.33" height="168.473"/>
<path d="M-709.517-850.84c-19.607,0-35.559,15.951-35.559,35.52c0,19.635,15.951,35.557,35.559,35.557
	c19.578,0,35.566-15.941,35.566-35.557C-673.951-834.898-689.939-850.84-709.517-850.84z M-709.517-795.258
	c-11.061,0-20.025-9.002-20.025-20.035c0-11.051,8.965-20.033,20.025-20.033c11.033,0,20.043,8.982,20.043,20.033
	C-689.474-804.27-698.484-795.258-709.517-795.258z"/>
<path d="M-610.203-862.746c-16.939,0-30.781,13.832-30.781,30.809s13.842,30.793,30.781,30.793
	c17.004,0,30.867-13.816,30.867-30.793S-593.199-862.746-610.203-862.746z M-610.203-816.67c-8.393,0-15.23-6.854-15.23-15.268
	c0-8.422,6.838-15.275,15.23-15.275c8.469,0,15.324,6.854,15.324,15.275S-601.734-816.67-610.203-816.67z"/>
<path d="M-299.109-585.426c0-16.986,13.834-30.82,30.848-30.82c12.799,0,24.41,8.1,28.912,20.176l2.82,7.635l7.5-3.172
	c2.326-0.979,4.805-1.48,7.453-1.48c8.535,0,15.59,5.705,18.059,13.453h16.141c-2.838-16.426-17.004-28.977-34.199-28.977
	c-2.184,0-4.264,0.18-6.314,0.551c-8.107-14.414-23.557-23.689-40.381-23.689c-25.568,0-46.381,20.773-46.381,46.344v5.771h15.533
	v-5.791H-299.109z"/>
<path d="M-493.533-590.164c9.201,0,16.711,7.482,16.777,16.682h15.496c-0.066-17.764-14.498-32.205-32.301-32.205
	c-17.746,0-32.217,14.441-32.283,32.205h15.533C-510.234-582.682-502.742-590.164-493.533-590.164z"/>
<path fill="#F8D000" d="M468.867,122.5h491.094c-0.006-12.88-10.449-23.3-23.311-23.3H492.139
	C479.277,99.2,468.873,109.62,468.867,122.5z"/>
<path fill="#5B550E" d="M857.088,177.575c7.598-9.775,14.246-20.403,19.787-31.775H551.912
	c5.535,11.373,12.177,22.001,19.766,31.775H857.088z"/>
<path fill="#7C6A1E" d="M400.306-454.861c0-12.217-9.425-22.249-21.412-23.215c-1.213,2.819-1.888,5.924-1.888,9.185v702.87h23.3
	V-454.861z"/>
<path fill="#7C6A1E" d="M400.306-456.438c0-12.117-11.183-21.638-23.3-21.638s-23.258,9.804-23.258,21.92s11.088-8.426,23.205-8.426
	C389.069-464.582,400.306-444.321,400.306-456.438z"/>
<path fill="#5B550E" d="M517.406,146.111c-5.955-0.027-4.094-0.188-11.438-0.063l1.9,31.325h25.009
	C526.942,167.5,521.752,157.061,517.406,146.111z"/>
<path fill="#5B550E" d="M895.818,177.575h25.049l1.991-31.775h-11.365C907.104,156.936,901.849,167.55,895.818,177.575z"/>
</svg>
