<?xml version="1.0" encoding="utf-8"?>
<!-- Generator: Adobe Illustrator 16.0.0, SVG Export Plug-In . SVG Version: 6.00 Build 0)  -->
<!DOCTYPE svg PUBLIC "-//W3C//DTD SVG 1.1//EN" "http://www.w3.org/Graphics/SVG/1.1/DTD/svg11.dtd">
<svg version="1.1" id="Layer_1" xmlns="http://www.w3.org/2000/svg" xmlns:xlink="http://www.w3.org/1999/xlink" x="0px" y="0px"
	 width="1012.727px" height="760.461px" viewBox="0 0 1012.727 760.461" enable-background="new 0 0 1012.727 760.461"
	 xml:space="preserve">
<path fill="#506C15" d="M977.833,560.561c-0.834-16.168-10.166-64.166-27.666-100.166s-31.333-41-55.167-47.668
	c-23.834-6.666-32.833,6-31.5,9.148c1.333,3.146,5.667-0.314,13,13.186s10.5,6.334,10.5,6.334s7-0.168,5.167-6.668
	c-5.833,3.834-10.5,2.668-10.5,2.668s-10.834-3.834,7-13.5s33.166,18.5,33.166,18.5l3.834,36.332l2.833,30.336l3.5-18.334
	l-3.833-4.166l16.166-1.168l3,12.834l5.834,8.334l-3.167,7.5l2,30.666l-6.667,13.166l-35.666,12.334l-25.667,3l-16.833,10.666
	l-6.5,7.334l-11.333,4.334l-18.167-1.668L826,587.729l21.334,1.166l6-0.666l-6-5.834L801,576.229l-27-13l-1.166-3.709l-10.501-8.625
	l-6.5-15.5l6.5-14.332l-2.833-4.703v-10.299l-5.666-12.271l3.166-3.229l-1.333-3.211l-15.833-11.289l-9.5,4.5l-6.167-3.334
	l-12-5.666l-8-10l-0.697,0.805l-1.546-1.307c0.05-0.059,0.095-0.119,0.146-0.18c-0.67-0.82-1.32-1.641-1.971-2.449
	c-0.06-1.621-0.101-3.24-0.149-4.852c-1.271-0.029-2.529-0.049-3.79-0.07c-0.05-0.51-0.149-1.549-0.199-2.059
	c-0.664,0.004-1.322,0.02-1.981,0.027l-0.274-1.457c0.5,0.135,0.995,0.154,1.437-0.24c2.221-1.98,4.689-3.701,6.631-5.98
	c0.58,0.109,1.17,0.221,1.771,0.352c0.771-0.721,1.539-1.432,2.319-2.131c-0.051,2.77,0.681,5.439,2.97,7.189
	c0.87-1.029,3.95-1.561,2.78-3.43c-1.17-1.15-2.5-2.121-3.62-3.313c0.391-1.959,2.13-3.299,2.78-5.158
	c0.26-2.271,0.279-4.57,0.85-6.791c-1.069,0.359-2.17,0.689-3.22,1.051c0.271-0.689,0.811-2.051,1.08-2.74
	c2.85-2.09,5.05,2.23,8.069,1.66c-2.141-2.189-5.63-2.279-7.489-4.709c0.63-0.201,1.88-0.611,2.5-0.82
	c0.68-1.279,1.899-2.07,3-2.951c0.39-0.76,0.779-1.52,1.17-2.289c-0.74-0.18-2.229-0.539-2.979-0.721
	c1.47-1.18,3.069-2.18,4.72-3.08c0.92-1.83,2.38-3.24,3.83-4.639c0.149-3.801-3.649-5.771-5.801-8.342
	c-4.27-3.879-5.81-9.92-10.649-13.26c-2.689-3.42-4.869-7.229-7.369-10.81c-2.591-1.7-2.83-4.96-4.29-7.46
	c-0.095,0.004-0.186,0.008-0.278,0.011l-0.257-1.434c0.199,0.036,0.396,0.075,0.596,0.112c0.17-1.471,0.449-2.939,0.351-4.431
	c-0.178-1.993-1.012-4.386-1.676-6.759c-0.539-1.925-0.966-3.837-0.841-5.517c0.146,0.108,0.285,0.228,0.429,0.337
	c-2.396-7.892-12.396-12.623-16.981-19.834c-0.37,0.17-0.74,0.308-1.103,0.373c-1.403,0.254-2.684-0.309-3.398-1.94
	c0.011,0.79,0.03,2.37,0.04,3.17c-0.343,0.344-0.676,0.689-1.013,1.035l-1.642-0.694c0.305-0.423,0.603-0.852,0.913-1.271
	c-0.88-0.051-2.63-0.16-3.51-0.21c-0.01-1.61,1.24-2.53,2.37-3.44c-0.811-3.68-4.641-5.26-7.53-7.04
	c-2.771-1.859-6.239-1.84-9.43-1.63c-2.931,1.061-4.511,3.97-4.25,7.01c0.183,0.127,0.376,0.252,0.568,0.378l-1.847,0.787
	c-0.191-0.138-0.366-0.265-0.503-0.364c0.189-1.851,0.399-3.7,0.609-5.551c-1.13,0.45-2.26,0.891-3.39,1.341
	c-0.13,1.869-0.261,3.729-0.38,5.601l-1.07,0.01c-0.08-2.26-0.149-4.529-0.12-6.79c-0.439,0.54-1.319,1.61-1.76,2.15
	c-0.891-1.66-1.07-3.551-1.36-5.381c-0.68,0.04-2.05,0.12-2.729,0.16c0.739,1.021,1.479,2.04,2.25,3.05
	c-0.03,3.229-1.771,5.931-4.79,7.12c-1.67-2.189-3.37-4.351-5.15-6.439c0.19-0.479,0.58-1.46,0.771-1.95
	c-1.811,0.021-3.609,0.051-5.409,0.08c0.521,2.431-0.71,4.141-3.16,4.58c-1.109,0.95-2.2,1.91-3.3,2.88
	c1.091,0.188,1.595,0.792,1.831,1.563l-2.526,0.193l-0.137-0.184l-0.121-0.164h-0.006c-0.734-1.471-1.727-2.809-2.882-4.011
	c-1.34,0.351-2.649,1.07-4.06,0.851l-1.261,0.601c-0.011,0.027-0.021,0.055-0.03,0.08c-0.428,1.11-0.974,2.175-1.529,3.221
	c1.185,0.412,2.378,0.845,3.579,1.276l0.226,0.296c-0.022,0.796-0.066,2.12-0.095,2.808c-0.64,0.04-1.92,0.109-2.561,0.149
	c-0.74,2.487-2.935,4.26-3.849,6.593l-1.814-0.893c-1.205-1.769-2.528-3.462-4.057-4.971c0.25-0.46,0.76-1.399,1.01-1.86
	c-0.107,0.031-0.219,0.054-0.328,0.083l1.548-2.604c0.276-0.138,0.551-0.282,0.82-0.438c0.511-0.819,1.021-1.64,1.55-2.449
	c-0.979-1.021-1.939-2.04-2.899-3.069c-2.271-0.32-5.029-0.061-6.09-2.58c0.779-0.03,2.351-0.11,3.13-0.141
	c0.37-0.42,1.101-1.25,1.46-1.66c1.7,0.189,4.91,2.091,4.689-1c1.65-0.239,3.391-0.21,4.99-0.771c1.479-0.569,1.05-2.43,1.42-3.64
	c-2.729,0.92-5.601,1.89-7.359,4.329c-1.79-0.369-3.62-0.659-5.431-0.311c-1.34-0.409-2.66-0.85-3.97-1.27
	c-0.221-1.11-0.431-2.21-0.631-3.311c-2-0.97-4.069-1.79-5.949-2.97c-1.761-1.24-2.34-3.45-3.28-5.271
	c1.24-1.76,3.221-2.05,5.211-2.22c2.399-0.82,0.409-3.32-0.011-4.85c-1.641,1.95-2.649,5.24-5.649,5.26
	c-0.04-0.71-0.131-2.13-0.17-2.83c-1.311-0.39-2.61-0.77-3.91-1.14c0.601,1.83,1.58,3.47,3.01,4.78
	c-1.133,1.532-2.156,3.183-2.896,4.932l-1.777-2.077c0.151-0.301,0.3-0.604,0.455-0.904c-1.34-3.88-4.859-6.87-5.319-10.99
	c0.819,0.03,2.479,0.09,3.311,0.12c-0.351-1.14-0.681-2.28-1.011-3.42c1.58,0.4,3.17,0.8,4.761,1.17
	c-1.471-1.96-3.351-3.54-5.061-5.27c-0.37-1.05,0.159-2.29,1.021-2.93c3.729-0.87,7.529-1.5,11.35-1.88c0.4-0.5,1.2-1.51,1.601-2.01
	c-3.25-3.32-8.329-0.6-12.13,0.24c0.221-2.94,2.449-4.17,5.221-4.05c-2.37-1.04-4.62-2.3-6.761-3.73
	c-0.739,1.5-1.479,3.01-2.21,4.52c-1.21,0.37-2.41,0.74-3.609,1.11c1.409-2.14,3.271-4.14,3.55-6.81l0.811-0.88
	c-0.009-1.37-0.002-2.74-0.007-4.11l4.102-2.771c0.323,0.988,1.241,2.03,4.302,1.952c3.286-0.084,7.585,6.193,7.581,6.438
	s3.552-3.825,3.552-3.825s-0.295-0.217-0.741-0.544l0.487-0.308l3.245,2.176l8.12-15.057l-5.614-0.518l-0.789-1.628
	c0.658,0.225,1.306,0.447,1.825,0.744c-0.712-2.049-2.365-3.706-3.251-5.653l-0.239-4.404c0.014-0.061,0.024-0.122,0.039-0.183
	l0.164-0.596c0.678-2.327,1.872-4.515,3.106-6.595c-0.542-0.275-1.069-0.565-1.594-0.863v-2.932
	c0.341,0.222,0.679,0.445,1.021,0.667c0.3-0.38,0.909-1.13,1.22-1.51c-0.64-1.15-1.949-2.07-1.92-3.49
	c0.59-0.83,1.301-1.57,1.99-2.32c-0.385-0.223-0.751-0.47-1.1-0.739l1.488-2.528c0.524,0.584,0.896,0.966,0.95,0.95
	c0.213-0.066,4.397,2.086,4.397,2.086l-1.545-2.296l1.722,2.475c-0.177-0.179,5.886-6.706,5.886-6.706s3.604,0.333,3.771,0.365
	c0.167,0.032,3.658-2.673,3.975-3.532c0.033-0.094,0.015-0.307-0.043-0.601l1.917-0.443l0.246,0.679c0,0,6.138,1.814,9.102,3.14
	c3.214-3.049,4.729-7.76,4.729-7.76s-0.604-0.353-1.656-0.82l0.574-1.804c0.813,0.322,1.618,0.645,2.436,0.969
	c1.39-0.799,2.823-1.639,4.16-2.595c0.006-0.004,0.01-0.005,0.016-0.01c0.004-0.003,0.008-0.007,0.012-0.009
	c1.985-1.424,3.745-3.113,4.823-5.317c1.797-2.449,3.158-4.699,3.158-4.699c0.077-0.06,0.154-0.119,0.231-0.179
	c-0.391-1.91-0.051-4.16-1.29-5.78c-1.36-0.61-2.841-0.76-4.28-1c-1.58,3.17-3.79,6.02-4.93,9.41
	c-1.517,0.329-2.617,1.114-3.485,2.137l-1.993-1.235c0.257-0.961,0.528-1.917,0.868-2.837c-1.109-1.73-1.25-3.7-0.359-5.54
	c-0.521-0.27-1.58-0.82-2.109-1.1c1.989-0.89,3.95-1.85,5.88-2.86c0.54-1.3,1.09-2.6,1.63-3.9c-1.949,1.29-3.43,4.23-6.149,3.36
	c0.58-1.4,1.17-2.78,1.75-4.18c-3.061,0.57-2.3,5.66-5.83,5.46c0.431-1.78,0.92-3.53,1.42-5.29c-0.819-1.28-1.659-2.54-2.5-3.8
	c-0.729,1.05-1.659,1.92-2.51,2.86c-0.334,1.523-0.119,3.212-0.786,4.64l-0.983-2.61c0.285-1.166,0.369-2.372,0.141-3.62
	c-0.244-0.118-0.492-0.223-0.739-0.332l0.246-1.755c0.57,0.228,1.138,0.471,1.692,0.748c-0.545-1.742-0.472-3.48-0.233-5.222
	c0.29-0.003,0.624-0.005,0.972-0.004l-0.063,1.016c0.016,0.007,0.036,0.015,0.062,0.024c0.943,0.376,8.133,3.111,8.239,3.135
	c0.11,0.025,1.912,0.43,1.912,0.43s1.975-2.326,3.521-3.4c1.547-1.074,6.888-0.883,6.886-0.895
	c-0.002-0.012,9.089-0.883,11.504-2.025c2.415-1.142,5.418-3.317,8.478-5.525c0.1-2.125-4.143-6.444-4.143-6.444l2.045-0.458
	c0.586,0.754,1.25,1.477,1.998,2.077c3.207,2.575,3.362,5.31,3.362,5.31s5.886-1.569,8.053-2.235s6.041-2.167,7.375-2.75
	s3-1.361,3-1.361l4.172,2.237l3.639-3.276c0,0-3.853-1.957-6.154-3.537c-0.854-0.586-1.582-1.38-2.208-2.165l0.518-0.218
	c1.592,2.584,5.367,2.8,7.709,4.637c1.8,0.94,1.689,3.15,2.13,4.87c1.66-0.93,3.351-1.82,5.04-2.73c1.03-1.82,2.45-3.37,4.141-4.61
	c-0.04-2.57,0.84-4.95,2.17-7.1c-3.347-1.031-6.692-2.084-10.072-2.999l-0.164-1.083c0.304-0.466,0.9-1.375,1.196-1.829
	c-0.24-0.42-0.729-1.27-0.979-1.7c1.99-0.39,1.771-2.3,1.95-3.86c0.649,0.15,1.949,0.43,2.6,0.58c-0.38,2.71-1.52,5.18-2.83,7.55
	c3.12,0.7,6.16,1.79,9.32,2.39l0.6-1.01c-0.579-0.36-1.739-1.08-2.319-1.44c-0.119-0.63-0.351-1.89-0.471-2.52
	c-1.27-0.43-2.56-0.85-3.818-1.26c-0.08-1.26-0.15-2.53-0.221-3.79l1.869,0.19c-0.3-0.62-0.59-1.24-0.869-1.86
	c-1.311-0.43-4.779,0.89-3.939-1.72c1.21-0.68,2.439-1.34,3.64-2.05c0.301,0.34,0.91,1.02,1.21,1.36c0.08-0.6,0.23-1.8,0.301-2.4
	c-1.381,0.35-2.771,0.64-4.149,0.92c0.81-1.73,1.72-3.42,2.63-5.11c1.521-0.26,3.05-0.51,4.59-0.78
	c-3.67-3.28-8.939-3.27-12.64-6.44c-0.521,0.54-1.021,1.09-1.521,1.63c0.75,0.08,2.229,0.23,2.97,0.31
	c0.71,0.74,1.431,1.48,2.16,2.21c-0.011,1.36-0.021,2.73-0.021,4.09c-1.2-1.32-2.12-3.04-3.9-3.65c0.36,1.19,0.721,2.38,1.102,3.57
	c-0.721-0.3-2.15-0.9-2.87-1.2c-0.471,0.67-0.95,1.32-1.44,1.97c-1.148-0.6-2.25-1.25-3.369-1.89c0.8,0.6,1.391,1.37,1.76,2.3
	c-0.286,0.507-0.794,1.381-1.198,2.08l-3.615-0.708c0.153-0.308,0.313-0.614,0.444-0.931c0.479-1.28-0.73-2.31-1.11-3.43
	c-0.118,0.033-0.233,0.067-0.352,0.1l-1.495-1.659c0.107,0.011,0.208,0.021,0.297,0.029c-0.96-1.27-3.181-2.09-2.601-4.03
	c-0.681,0.14-2.021,0.42-2.699,0.57c-1.681-1.35-3.03-3.19-2.062-5.43c-1.213,0.087-2.414,0.167-3.615,0.244l-1.745-1.554
	c0.827-0.673,1.716-1.27,2.661-1.76c0.91-0.42,1.58-1.08,2.029-2c5.461,0.91,9.86,4.58,15.011,6.43c-1.71-2.45-3.33-5.02-5.58-7.02
	c-2.87-1.28-6.46-0.75-8.851-3.04c-1.63-1.75-4.069-1.24-6.189-1.37c0.641,1.8,1.271,3.6,1.67,5.48
	c-2.149-0.72-2.869-2.93-3.909-4.7c-0.87,1.6-1.391,3.8-3.65,3.71c0.69-1.75,1.471-3.47,2.28-5.18c-0.479-0.07-1.439-0.21-1.92-0.28
	c-0.04,1.34-0.061,2.68-0.07,4.02c-1.14,0.04-2.26,0.08-3.369,0.12c0.18,1.42,0.47,2.98-1.431,3.16c-0.08-0.58-0.25-1.74-0.33-2.31
	c-2.189,0.66-4.7,0.89-6.25,2.78c-0.147,0.121-0.286,0.25-0.417,0.386l-2.635-0.05c0.701-1.134,1.611-2.085,2.861-2.666
	c2.279-1.95,5.569-1.96,7.681-4.24c0.59-1.94,0.87-3.95,0.09-5.89c2.261,0.76,4.561,1.4,6.931,1.79
	c-0.71-2.04-1.561-4.01-2.439-5.97c-3.229-0.32-5.181,2.48-7.141,4.55c-1.91,0.3-3.17,1.66-4.181,3.19
	c-1.84,0.36-1.75-2.43-2.62-3.53c0.94-0.51,1.761-1.17,2.471-1.97c-1.5-0.55-2.431-1.66-2.391-3.27c0.771-0.03,2.33-0.09,3.11-0.12
	c0.56,0.63,1.13,1.25,1.699,1.88c0.08-1.9,0.189-3.8,0.3-5.7c-1.229-0.49-2.449-0.97-3.67-1.45c-0.15-0.301-0.296-0.604-0.445-0.904
	c0.521-1.772,5.489-5.125,4.803-5.091c0.625-0.163,1.238-0.38,1.833-0.685h-7.102v-5.556h0.751l4-8.5l1.333-11.167l-5.666-4.333
	l8.5-7.167l-3-28.667l-13.667,5.833c0,0-14.333-12.333-19.833-12.5S600,26.06,595.167,26.06S575.333,28.894,574,32.394s-9,22-9,22
	l-23.879-7c0,0-15.621,8-16.454,10.333s-3.489,6.667-3.489,6.667l1.989,23.056l-14.5-3.389c0,0-9.244,1.232-10.59,4.167l0.749,2.704
	l-2.346-0.608c-0.334-1.031-0.724-2.056-0.823-2.873h-6.633l-5.874-3.792l3.792,3.792h-7.585c3.659,2.52,7.909,3.88,12.17,5.01
	c0.07-0.07,0.147-0.135,0.221-0.204l1.862,1.862c-0.139,0.085-0.27,0.177-0.401,0.268h-10.241H73l-42.271-1.429l-55.5-2.063
	l-71.438-2.438l-60-1.875l-79.313-1.625l-15,54.125l-13.688,50.438l-11.813,43.313l-13.188,48.375l-12.938,46.563l-12.75,47.563
	l-9.375,34.25l4.375,17.625l21.813-0.438l140.188,5.188l86.438,1.813l-0.875,18.75l18.188-2.813l4.063-15.688l14.938-0.75l38.5,3.25
	l0.5,2.5l9.25,0.375l3.125-2.689l13.875-1.895h47.813l38.577,1.043c2.23,0.186,4.602,0.33,7.474,0.355c0-0.051,0-0.104,0.001-0.154
	l73.673,1.994c4.769,0.381,9.566,0.418,14.368,0.389l0.067,0.002l32.028,0.605c7.025,0.322,14.051,0.613,21.092,0.463
	c-0.005-0.02-0.011-0.041-0.016-0.063l3.045,0.059c8.688,0.563,17.472,0.395,26.191,0.566c-0.006-0.023-0.012-0.047-0.017-0.07
	l2.522,0.047c0.703,1.295,1.057,2.707,1.185,4.178v3.275c13.97-0.59,27.95-1.291,41.95-1.131c-0.008-0.268-0.017-0.535-0.024-0.803
	l1.897-0.088c0.029,0.127,0.047,0.254,0.078,0.381c10.32-0.039,20.64-0.59,30.96-0.67c0.009-0.381,0.011-0.764,0.02-1.145
	l1.922-0.09c0.01,0.285,0.017,0.57,0.028,0.855c2.94,0.129,5.87,0.01,8.79-0.361c-0.011-0.299-0.019-0.598-0.03-0.898l1.369-0.063
	c0,0.338,0,0.676,0,1.012c7.35,0.031,14.701,0.01,21.98-1.209c0.002-0.271,0.004-0.545,0.006-0.814l1.922-0.09
	c0.004,0.342,0.01,0.684,0.012,1.023c4.25-0.18,8.5-0.369,12.761-0.33c0.09-0.43,0.15-0.861,0.229-1.293l1.93-0.09
	c-0.019,0.395-0.029,0.789-0.049,1.184c6.061-0.09,12.119-0.381,18.181-0.43c3.241-0.074,6.633,0.346,9.777-0.498l0.009,1.635
	c-0.176,0.066-0.352,0.137-0.526,0.203c0.08,5.189,0.069,10.369,0.01,15.561c0.201,0.025,0.398,0.031,0.598,0.047l0.006,1.129
	c-0.201,0.004-0.403,0.004-0.604,0.014c0.24,10.643-0.31,21.271-0.079,31.91c0.279-0.203,0.563-0.406,0.843-0.609l0.012,2.219
	c-0.219,0.232-0.434,0.471-0.635,0.723c-0.51,3.209-0.199,6.469-0.141,9.699c0.275-0.045,0.553-0.09,0.827-0.133l0.007-0.002
	c5.773-0.936,11.549-1.877,17.326-2.797v1.715l-3.302,0.465l-1.667,6.668l3.667,8.832l-3.5,8.5l1.666,5.336l-4.166,4.164
	l3.333,6.668c0,0-3,6.166,0,7.5s4.667,8.123,4.667,8.123l5.343,2.914h0.001L495,573.063l22.028,38.166l8.139,1.666l-0.834,2.168
	l15.334,3.832L539,630.229l-1.5,15l4.667,13.5c0,0,4.166,40.332,4.333,38c0.167-2.334,14.333-3.334,21.833-2.5
	c7.5,0.832,6,9.666,7.167,9.666s1.667-3.834,3.333-7.166c1.666-3.334,3.834-6,5.667-6.5s11.167,4.332,11-1.168s0.167-12,4.333-6.832
	c4.166,5.166,7.334,7.5,7.167,3.166c-0.167-4.332,7.667-7.666,7.167-10.166s-5-13.666-7.5-16.666s-3.5-5-2.667-7.334
	s7.667,6.5,8.667,5.834s1.166-9.168,1.166-12.834c0-3.668,3.667-4.166,6.167,1s4.667,6.5,5,4.166c0.333-2.332-4.5-10-3.667-12.5
	s6.334-3.332,10.5-3.666s7.167,14.834,7.334,15.5s3.333,5.666,3.333,5.666s1-8.832-0.5-14c-1.5-5.166-2.167-6.166-2.167-6.166
	s6,2.666,11.5,1.5c5.5-1.168,6.834-1.166,6.834-1.166s1-2.5-0.167-5.834s-5.5-4.334-5.5-4.334l2.333-3.832l9.667,2.166
	c0,0,10.833,0.666,12.5-0.168s-0.333-11.332-0.333-11.332s2.666-1.668,5.166-4c2.5-2.334,10.667,0.332,5.667-3
	c-5-3.334,0.833-1.168,2.833-6.834s-2.166-6.666,0.834-14c3-7.332,4.833-0.5,8.5-0.166c3.667,0.332,2.666,1.5,7.5,5.5
	s5.5,1.832,7.833-1.168s-3.333-3-3.833-7.832c-0.5-4.834,14-4,9.5,0.166c-4.5,4.168,0.166,5.5,6.5,8s0.936,10.166,0.936,10.166
	l-14.603,8.668l7.5,7.834l-6.166,1l6.666,2.498l3.667,3.502L716,626.395l4,8.834l-3.5,9.166c0,0,0.333,13-1.333,18.834
	c-1.666,5.832-6.5,13.832-6.5,13.832L696,686.729l-19.166,14.5L644,722.561l-33.333,10.334l-0.5,7.166l53.166-17.166l41-31.168
	l-0.333-4c0,0-2.667-5.5,11.667-0.832c10.334-10.5,40.166-16,45-12.5c6.334-1.334,12-2.668,17.333-3.168
	s12.834-17.332,13.667-20.832s6.333-10.168,10.5-15.834c4.167-5.668,5.667-3.834,7.333,1.334c1.666,5.166-1.333,7.166-1.5,8.832
	c-0.167,1.668,4.167-1,10.334-3s3.166-6.332,4.833-10.5c1.667-4.166,19.833,5.168,20.333,2.334s10.334-1.334,11-2.334
	s-1.333-3.832-0.833-5.166s10.833,2.166,10.833,2.166l-3.333,4.668c0,0-5.167,1.666-6.667,4.166s3,6,3.834,5.834
	s1.666-4.168,2.166-6.168s22.5-11.5,24.5-13s17.667,0,17.667,0s22.833-6.166,25.167-7.332s11-5.668,24.667-2.668
	s14.166,8.334,14.166,8.334s8.333-10.166,6-13s-0.334-10.666-0.167-11.666s-7-6.168-9.167-7.668s-5.833,1.5-8.5,2.168
	c-2.667,0.666,0.834-7.5,1.5-9.834s7.667-0.834,8.667-1.834s-0.667-5.832-0.667-5.832l5.834-5.5l6.5,39.666l1.166,1.166
	c0,0,0.378-14.955,0.371-29.666C978.2,572.922,978.105,565.842,977.833,560.561z M709.367,422.532c0.027-0.002,0.053,0,0.081-0.002
	c-0.175,0.879-0.182,2.615-0.874,3.084L709.367,422.532z M655.422,88.203c-0.354,0.126-0.732,0.185-1.117,0.2
	C654.681,88.354,655.054,88.289,655.422,88.203z M494.715,89.865l-0.112-0.029c0.062-0.043,0.113-0.094,0.176-0.136
	C494.758,89.756,494.735,89.81,494.715,89.865z"/>
</svg>
