<?xml version="1.0" encoding="utf-8"?>
<!-- Generator: Adobe Illustrator 16.0.0, SVG Export Plug-In . SVG Version: 6.00 Build 0)  -->
<!DOCTYPE svg PUBLIC "-//W3C//DTD SVG 1.1//EN" "http://www.w3.org/Graphics/SVG/1.1/DTD/svg11.dtd">

<svg version="1.1" 
	 id="map_canvas" 
	 xmlns="http://www.w3.org/2000/svg" 
	 xmlns:xlink="http://www.w3.org/1999/xlink" x="0px" y="0px"
	 
	 viewBox="-79.892 94.942 960 599.864" 
	 enable-background="new -79.892 94.942 960 599.864"
	 xml:space="preserve">

	<filter id="dropshadow" height="130%">
 	<feGaussianBlur in="SourceAlpha" stdDeviation="3"/> <!-- stdDeviation is how much to blur -->
  	<feOffset dx="2" dy="2" result="offsetblur"/> <!-- how much to offset -->
  	<feMerge> 
    <feMergeNode/> <!-- this contains the offset blurred image -->
  	<feMergeNode in="SourceGraphic"/> <!-- this contains the element that the filter is applied to -->
  	</feMerge>
</filter>
<!-- <circle r="10" style="filter:url(#dropshadow)"/> -->


<path  
	id="map_canvas" 
	style="filter:url(#dropshadow)" 
	d="M842.57,519.167c-0.565-10.991-6.91-43.619-18.808-68.093c-11.897-24.473-21.301-27.872-37.502-32.404
	c-16.202-4.532-22.321,4.079-21.415,6.219c0.906,2.139,3.853-0.214,8.839,8.964c4.984,9.177,7.139,4.306,7.139,4.306
	s4.757-0.114,3.512-4.533c-3.965,2.606-7.139,1.814-7.139,1.814s-7.364-2.606,4.76-9.178c12.122-6.571,22.544,12.576,22.544,12.576
	l2.607,24.699l1.926,20.621l2.381-12.462l-2.607-2.834l10.991-0.794l2.037,8.725l3.968,5.666l-2.152,5.099l1.36,20.848l-4.533,8.949
	l-24.247,8.386l-17.447,2.037l-11.444,7.253l-4.419,4.984l-7.703,2.946l-12.35-1.133l-3.514-4.192l14.503,0.792l4.08-0.451
	l-4.08-3.965l-31.497-4.192l-18.354-8.837l-0.794-2.522l-7.139-5.863l-4.418-10.538l4.418-9.741l-1.925-3.196v-7.003l-3.852-8.342
	l2.15-2.194l-0.904-2.184l-10.765-7.674l-6.459,3.059l-4.191-2.267l-8.157-3.851l-5.438-6.8l-0.475,0.549l-1.051-0.89
	c0.032-0.04,0.063-0.08,0.098-0.123c-0.455-0.557-0.896-1.114-1.339-1.663c-0.04-1.104-0.067-2.202-0.102-3.3
	c-0.864-0.019-1.72-0.031-2.575-0.047c-0.034-0.347-0.102-1.053-0.136-1.399c-0.453,0.002-0.9,0.013-1.348,0.019l-0.186-0.991
	c0.339,0.094,0.675,0.106,0.976-0.163c1.509-1.345,3.188-2.517,4.508-4.065c0.395,0.075,0.795,0.151,1.203,0.238
	c0.523-0.489,1.047-0.972,1.576-1.447c-0.034,1.883,0.464,3.698,2.021,4.887c0.591-0.699,2.684-1.062,1.89-2.33
	c-0.797-0.783-1.701-1.442-2.462-2.253c0.266-1.331,1.449-2.242,1.89-3.507c0.178-1.544,0.19-3.107,0.578-4.616
	c-0.727,0.244-1.476,0.469-2.188,0.715c0.182-0.469,0.549-1.396,0.732-1.864c1.938-1.419,3.434,1.518,5.486,1.13
	c-1.455-1.489-3.827-1.55-5.092-3.202c0.428-0.136,1.279-0.415,1.7-0.557c0.462-0.87,1.29-1.407,2.038-2.006
	c0.267-0.518,0.531-1.034,0.797-1.558c-0.505-0.121-1.515-0.365-2.025-0.489c1-0.802,2.087-1.481,3.207-2.094
	c0.627-1.244,1.62-2.203,2.604-3.153c0.104-2.584-2.479-3.925-3.942-5.671c-2.901-2.637-3.95-6.744-7.24-9.014
	c-1.827-2.324-3.311-4.914-5.009-7.349c-1.761-1.155-1.924-3.372-2.917-5.071c-0.063,0.002-0.125,0.005-0.188,0.008l-0.176-0.976
	c0.136,0.024,0.271,0.052,0.406,0.076c0.117-1,0.306-1.997,0.237-3.012c-0.12-1.354-0.687-2.981-1.138-4.595
	c-0.366-1.309-0.658-2.608-0.571-3.75c0.098,0.074,0.192,0.155,0.29,0.229c-1.627-5.364-8.427-8.582-11.544-13.483
	c-0.252,0.115-0.503,0.208-0.749,0.253c-0.954,0.173-1.825-0.209-2.311-1.319c0.007,0.538,0.021,1.611,0.027,2.155
	c-0.232,0.233-0.459,0.469-0.688,0.703l-1.117-0.472c0.207-0.288,0.41-0.579,0.621-0.864c-0.599-0.034-1.787-0.109-2.387-0.143
	c-0.007-1.094,0.843-1.72,1.612-2.339c-0.551-2.501-3.154-3.576-5.119-4.786c-1.884-1.264-4.242-1.25-6.41-1.108
	c-1.993,0.721-3.067,2.699-2.89,4.766c0.125,0.086,0.254,0.171,0.386,0.257l-1.254,0.535c-0.132-0.093-0.25-0.18-0.344-0.248
	c0.13-1.258,0.271-2.515,0.414-3.773c-0.768,0.306-1.534,0.605-2.303,0.911c-0.089,1.271-0.179,2.536-0.259,3.808l-0.729,0.006
	c-0.053-1.537-0.101-3.079-0.081-4.616c-0.298,0.368-0.896,1.095-1.196,1.462c-0.605-1.128-0.727-2.414-0.924-3.658
	c-0.464,0.027-1.394,0.082-1.855,0.109c0.502,0.694,1.005,1.387,1.529,2.073c-0.021,2.195-1.204,4.032-3.256,4.84
	c-1.135-1.488-2.291-2.958-3.501-4.377c0.129-0.326,0.395-0.993,0.523-1.326c-1.23,0.014-2.453,0.035-3.678,0.055
	c0.354,1.652-0.482,2.814-2.147,3.113c-0.754,0.646-1.495,1.299-2.243,1.958c0.741,0.127,1.084,0.539,1.244,1.063l-1.718,0.131
	l-0.092-0.125l-0.083-0.112h-0.004c-0.499-1-1.175-1.91-1.959-2.726c-0.911,0.238-1.801,0.728-2.759,0.578l-0.858,0.408
	c-0.008,0.019-0.014,0.037-0.021,0.055c-0.291,0.755-0.662,1.479-1.038,2.189c0.804,0.281,1.614,0.575,2.433,0.869l0.152,0.201
	c-0.014,0.541-0.045,1.441-0.063,1.909c-0.435,0.027-1.306,0.074-1.741,0.102c-0.504,1.691-1.994,2.896-2.616,4.482l-1.232-0.607
	c-0.82-1.203-1.721-2.353-2.758-3.379c0.169-0.313,0.517-0.951,0.686-1.265c-0.073,0.021-0.15,0.037-0.224,0.057l1.053-1.77
	c0.188-0.094,0.374-0.192,0.557-0.298c0.348-0.557,0.694-1.115,1.055-1.666c-0.665-0.693-1.318-1.387-1.971-2.086
	c-1.544-0.217-3.42-0.041-4.14-1.754c0.529-0.021,1.597-0.074,2.127-0.095c0.251-0.286,0.749-0.849,0.992-1.129
	c1.156,0.129,3.337,1.421,3.188-0.68c1.122-0.163,2.305-0.143,3.391-0.523c1.008-0.387,0.715-1.652,0.967-2.475
	c-1.854,0.625-3.808,1.285-5.003,2.943c-1.217-0.251-2.46-0.449-3.691-0.211c-0.912-0.278-1.808-0.578-2.7-0.863
	c-0.149-0.754-0.292-1.502-0.428-2.25c-1.359-0.66-2.767-1.217-4.045-2.019c-1.195-0.843-1.589-2.346-2.229-3.583
	c0.843-1.196,2.188-1.394,3.541-1.509c1.631-0.558,0.277-2.257-0.007-3.297c-1.115,1.326-1.8,3.562-3.84,3.576
	c-0.029-0.482-0.09-1.448-0.116-1.924c-0.892-0.265-1.774-0.524-2.658-0.775c0.408,1.244,1.074,2.359,2.046,3.25
	c-0.77,1.042-1.465,2.164-1.968,3.353l-1.209-1.412c0.103-0.205,0.203-0.411,0.309-0.615c-0.91-2.638-3.302-4.669-3.615-7.47
	c0.557,0.02,1.686,0.061,2.25,0.082c-0.238-0.775-0.463-1.55-0.688-2.325c1.075,0.272,2.154,0.544,3.237,0.796
	c-1-1.333-2.277-2.407-3.44-3.583c-0.252-0.714,0.108-1.557,0.693-1.992c2.535-0.591,5.118-1.019,7.716-1.278
	c0.272-0.34,0.815-1.026,1.088-1.367c-2.208-2.256-5.663-0.407-8.245,0.164c0.149-1.999,1.665-2.834,3.548-2.753
	c-1.609-0.707-3.141-1.563-4.597-2.536c-0.5,1.02-1.004,2.046-1.501,3.073c-0.822,0.251-1.639,0.502-2.454,0.754
	c0.958-1.455,2.224-2.814,2.413-4.629l0.551-0.598c-0.006-0.932-0.001-1.863-0.004-2.794l2.789-1.884
	c0.219,0.672,0.844,1.38,2.924,1.328c2.233-0.057,5.155,4.209,5.153,4.376c-0.002,0.166,2.415-2.601,2.415-2.601
	s-0.201-0.147-0.504-0.37l0.33-0.21l2.207,1.48l5.521-10.236l-3.817-0.353l-0.536-1.106c0.447,0.153,0.888,0.304,1.241,0.506
	c-0.484-1.393-1.607-2.52-2.211-3.844l-0.162-2.993c0.01-0.042,0.016-0.083,0.026-0.125l0.111-0.405
	c0.461-1.582,1.271-3.069,2.112-4.483c-0.369-0.187-0.729-0.384-1.084-0.586v-1.994c0.231,0.151,0.462,0.302,0.694,0.454
	c0.204-0.258,0.619-0.768,0.831-1.027c-0.437-0.782-1.326-1.407-1.306-2.372c0.399-0.564,0.883-1.068,1.352-1.578
	c-0.263-0.151-0.51-0.319-0.747-0.502l1.012-1.718c0.356,0.396,0.608,0.656,0.646,0.646c0.145-0.045,2.989,1.418,2.989,1.418
	l-1.05-1.561l1.17,1.682c-0.12-0.121,4.001-4.558,4.001-4.558s2.45,0.226,2.564,0.249c0.114,0.021,2.486-1.817,2.703-2.402
	c0.021-0.063,0.008-0.208-0.03-0.409l1.303-0.301l0.167,0.462c0,0,4.173,1.233,6.188,2.134c2.187-2.072,3.215-5.274,3.215-5.274
	s-0.41-0.24-1.126-0.559l0.391-1.226c0.552,0.219,1.101,0.439,1.655,0.659c0.945-0.543,1.919-1.114,2.828-1.764
	c0.004-0.002,0.007-0.003,0.011-0.007c0.003-0.001,0.006-0.004,0.008-0.006c1.35-0.967,2.546-2.116,3.279-3.614
	c1.221-1.665,2.146-3.195,2.146-3.195c0.052-0.041,0.105-0.081,0.158-0.122c-0.266-1.298-0.034-2.828-0.877-3.93
	c-0.926-0.415-1.932-0.516-2.91-0.679c-1.074,2.155-2.576,4.092-3.352,6.397c-1.031,0.223-1.779,0.757-2.37,1.452l-1.354-0.839
	c0.176-0.654,0.359-1.304,0.59-1.929c-0.754-1.176-0.849-2.515-0.243-3.766c-0.354-0.184-1.074-0.558-1.435-0.749
	c1.352-0.604,2.687-1.257,3.997-1.944c0.366-0.884,0.741-1.767,1.108-2.651c-1.325,0.877-2.331,2.875-4.181,2.284
	c0.395-0.952,0.795-1.89,1.189-2.842c-2.08,0.388-1.563,3.847-3.963,3.711c0.292-1.209,0.625-2.399,0.966-3.596
	c-0.558-0.87-1.129-1.726-1.699-2.583c-0.498,0.714-1.129,1.306-1.707,1.944c-0.227,1.036-0.08,2.184-0.534,3.155l-0.669-1.774
	c0.193-0.793,0.252-1.613,0.096-2.461c-0.166-0.08-0.335-0.151-0.503-0.226l0.168-1.193c0.388,0.155,0.773,0.32,1.15,0.509
	c-0.371-1.185-0.321-2.366-0.158-3.551c0.197-0.001,0.424-0.003,0.66-0.002l-0.043,0.691c0.011,0.004,0.024,0.01,0.042,0.017
	c0.642,0.255,5.529,2.114,5.602,2.131c0.073,0.017,1.3,0.292,1.3,0.292s1.344-1.582,2.394-2.311
	c1.051-0.731,4.682-0.601,4.682-0.609c-0.002-0.008,6.179-0.6,7.82-1.376c1.642-0.776,3.683-2.255,5.764-3.756
	c0.066-1.444-2.817-4.381-2.817-4.381l1.39-0.312c0.398,0.513,0.852,1.005,1.359,1.413c2.18,1.75,2.286,3.609,2.286,3.609
	s4.001-1.066,5.473-1.52c1.475-0.453,4.107-1.473,5.015-1.869c0.906-0.396,2.039-0.925,2.039-0.925l2.837,1.521l2.474-2.227
	c0,0-2.62-1.331-4.185-2.404c-0.581-0.399-1.076-0.938-1.501-1.472l0.352-0.147c1.082,1.756,3.65,1.903,5.241,3.152
	c1.224,0.639,1.147,2.141,1.446,3.311c1.129-0.632,2.279-1.238,3.428-1.856c0.698-1.237,1.667-2.291,2.814-3.134
	c-0.027-1.747,0.57-3.364,1.475-4.827c-2.275-0.701-4.548-1.417-6.846-2.039l-0.112-0.736c0.207-0.317,0.611-0.936,0.813-1.244
	c-0.163-0.286-0.495-0.863-0.665-1.155c1.352-0.266,1.203-1.564,1.326-2.624c0.44,0.102,1.324,0.292,1.767,0.394
	c-0.258,1.842-1.033,3.521-1.923,5.132c2.12,0.477,4.188,1.217,6.335,1.625l0.407-0.687c-0.393-0.245-1.183-0.735-1.576-0.979
	c-0.083-0.427-0.239-1.285-0.32-1.712c-0.861-0.292-1.741-0.578-2.597-0.856c-0.053-0.856-0.102-1.72-0.15-2.577l1.273,0.129
	c-0.206-0.422-0.402-0.844-0.594-1.265c-0.89-0.292-3.247,0.604-2.677-1.17c0.824-0.462,1.658-0.91,2.474-1.393
	c0.206,0.231,0.619,0.694,0.824,0.924c0.053-0.408,0.156-1.223,0.203-1.631c-0.938,0.238-1.883,0.435-2.819,0.626
	c0.549-1.177,1.167-2.326,1.788-3.475c1.033-0.177,2.071-0.346,3.12-0.53c-2.495-2.229-6.077-2.223-8.594-4.378
	c-0.354,0.368-0.694,0.741-1.033,1.108c0.51,0.055,1.517,0.157,2.019,0.211c0.482,0.503,0.972,1.006,1.468,1.502
	c-0.007,0.925-0.013,1.856-0.013,2.781c-0.815-0.897-1.44-2.067-2.652-2.481c0.244,0.809,0.489,1.618,0.75,2.427
	c-0.491-0.204-1.462-0.612-1.953-0.816c-0.319,0.456-0.646,0.897-0.979,1.339c-0.781-0.408-1.529-0.85-2.29-1.285
	c0.543,0.408,0.945,0.932,1.197,1.564c-0.195,0.345-0.54,0.938-0.815,1.414l-2.457-0.481c0.104-0.209,0.212-0.417,0.302-0.633
	c0.325-0.87-0.497-1.57-0.755-2.332c-0.081,0.023-0.158,0.046-0.239,0.068l-1.018-1.128c0.074,0.008,0.143,0.014,0.204,0.02
	c-0.652-0.864-2.163-1.42-1.77-2.74c-0.461,0.095-1.372,0.286-1.834,0.387c-1.144-0.917-2.06-2.168-1.402-3.691
	c-0.824,0.059-1.642,0.113-2.457,0.166l-1.186-1.056c0.562-0.458,1.166-0.864,1.809-1.197c0.618-0.286,1.074-0.734,1.379-1.359
	c3.712,0.619,6.703,3.114,10.205,4.371c-1.163-1.665-2.264-3.412-3.793-4.771c-1.951-0.87-4.392-0.51-6.019-2.067
	c-1.107-1.189-2.766-0.843-4.206-0.931c0.435,1.224,0.864,2.447,1.135,3.725c-1.461-0.489-1.95-1.992-2.658-3.195
	c-0.591,1.088-0.944,2.583-2.481,2.522c0.47-1.189,1.001-2.359,1.552-3.521c-0.326-0.047-0.98-0.143-1.307-0.19
	c-0.026,0.91-0.041,1.822-0.047,2.732c-0.775,0.027-1.537,0.055-2.291,0.082c0.122,0.966,0.32,2.026-0.974,2.148
	c-0.054-0.395-0.169-1.183-0.223-1.57c-1.488,0.448-3.195,0.604-4.248,1.889c-0.101,0.082-0.195,0.17-0.284,0.262l-1.792-0.034
	c0.477-0.771,1.095-1.417,1.946-1.812c1.549-1.325,3.785-1.333,5.221-2.883c0.4-1.318,0.591-2.685,0.061-4.003
	c1.536,0.517,3.101,0.952,4.712,1.217c-0.483-1.387-1.061-2.727-1.659-4.059c-2.194-0.217-3.521,1.686-4.854,3.093
	c-1.299,0.204-2.154,1.128-2.843,2.168c-1.249,0.244-1.188-1.652-1.781-2.399c0.64-0.347,1.198-0.795,1.68-1.339
	c-1.019-0.375-1.652-1.129-1.625-2.224c0.524-0.02,1.585-0.061,2.114-0.082c0.382,0.428,0.77,0.85,1.155,1.278
	c0.056-1.291,0.129-2.583,0.205-3.874c-0.837-0.334-1.665-0.66-2.495-0.986c-0.103-0.204-0.201-0.41-0.304-0.614
	c0.355-1.205,3.732-3.484,3.265-3.461c0.426-0.111,0.843-0.258,1.247-0.466h-4.827v-3.777h0.511l2.718-5.778l0.906-7.592
	l-3.852-2.945l5.778-4.873l-2.039-19.487l-9.29,3.965c0,0-9.744-8.384-13.482-8.498c-3.74-0.113-15.535,7.251-18.819,7.251
	s-13.482,1.927-14.39,4.307c-0.906,2.379-6.117,14.955-6.117,14.955l-16.233-4.759c0,0-10.619,5.439-11.186,7.025
	c-0.566,1.585-2.371,4.532-2.371,4.532l1.352,15.673l-9.857-2.304c0,0-6.284,0.838-7.199,2.833l0.509,1.838l-1.594-0.413
	c-0.227-0.701-0.492-1.397-0.561-1.953h-4.508l-3.994-2.578l2.578,2.578h-5.156c2.487,1.713,5.376,2.638,8.273,3.405
	c0.048-0.047,0.1-0.091,0.15-0.138l1.266,1.265c-0.094,0.058-0.184,0.121-0.273,0.183h-6.961H227.462l-28.736-0.971l-37.729-1.403
	l-48.564-1.657l-40.788-1.275l-53.917-1.104L7.531,232.644l-9.305,34.288l-8.03,29.444l-8.965,32.885l-8.795,31.654l-8.668,32.333
	l-6.373,23.285l2.975,11.98l14.828-0.297l95.301,3.525l58.76,1.232l-0.595,12.746l12.365-1.913l2.761-10.662l10.155-0.511
	l26.172,2.209l0.34,1.7l6.288,0.255l2.125-1.828l9.432-1.288h32.503l26.225,0.709c1.516,0.125,3.129,0.224,5.081,0.241
	c0-0.034,0-0.07,0-0.104l50.083,1.355c3.242,0.259,6.503,0.284,9.768,0.264l0.045,0.002l21.773,0.411
	c4.775,0.22,9.552,0.417,14.339,0.316c-0.004-0.014-0.008-0.029-0.011-0.044l2.07,0.04c5.906,0.383,11.878,0.269,17.805,0.385
	c-0.003-0.016-0.007-0.031-0.011-0.048l1.714,0.032c0.478,0.88,0.718,1.841,0.805,2.84v2.227c9.497-0.4,19-0.877,28.518-0.768
	c-0.005-0.182-0.012-0.364-0.016-0.546l1.289-0.062c0.021,0.087,0.033,0.174,0.054,0.261c7.016-0.028,14.031-0.402,21.047-0.456
	c0.005-0.259,0.007-0.519,0.013-0.778l1.306-0.061c0.007,0.193,0.012,0.388,0.019,0.581c1.999,0.087,3.991,0.007,5.976-0.245
	c-0.007-0.204-0.013-0.407-0.02-0.611l0.93-0.041c0,0.229,0,0.458,0,0.686c4.997,0.022,9.994,0.007,14.943-0.82
	c0-0.186,0.002-0.371,0.003-0.555l1.307-0.061c0.003,0.232,0.006,0.464,0.008,0.695c2.889-0.123,5.779-0.251,8.675-0.224
	c0.062-0.292,0.102-0.585,0.156-0.88l1.312-0.061c-0.013,0.269-0.02,0.536-0.033,0.805c4.12-0.062,8.238-0.259,12.359-0.292
	c2.204-0.051,4.509,0.234,6.647-0.34l0.006,1.112c-0.12,0.046-0.239,0.093-0.358,0.138c0.054,3.527,0.047,7.05,0.007,10.578
	c0.137,0.018,0.271,0.021,0.406,0.032l0.003,0.767c-0.137,0.005-0.274,0.005-0.41,0.011c0.163,7.235-0.211,14.459-0.054,21.692
	c0.189-0.138,0.382-0.275,0.573-0.415l0.008,1.508c-0.149,0.159-0.294,0.32-0.432,0.491c-0.346,2.182-0.136,4.399-0.095,6.595
	c0.187-0.032,0.375-0.062,0.562-0.092h0.005c3.925-0.635,7.851-1.274,11.778-1.902v1.168l-2.244,0.315l-1.133,4.533l2.493,6.003
	l-2.38,5.778l1.133,3.628l-2.832,2.83l2.266,4.533c0,0-2.039,4.191,0,5.098c2.04,0.907,3.173,5.522,3.173,5.522l3.632,1.982l0,0
	l13.251,7.221l14.975,25.946l5.532,1.133l-0.567,1.475l10.425,2.605l-0.454,7.703l-1.02,10.197l3.174,9.178
	c0,0,2.831,27.418,2.945,25.832c0.113-1.587,9.742-2.267,14.841-1.699c5.099,0.565,4.079,6.57,4.874,6.57
	c0.792,0,1.133-2.604,2.264-4.871c1.134-2.267,2.607-4.078,3.854-4.419c1.244-0.339,7.591,2.946,7.476-0.794
	c-0.112-3.739,0.115-8.157,2.947-4.644c2.832,3.512,4.985,5.099,4.872,2.152c-0.115-2.944,5.212-5.211,4.872-6.912
	c-0.34-1.698-3.4-9.29-5.099-11.33c-1.699-2.037-2.38-3.397-1.813-4.983c0.567-1.587,5.212,4.418,5.892,3.965
	c0.681-0.453,0.793-6.231,0.793-8.725s2.493-2.832,4.191,0.68c1.7,3.512,3.174,4.419,3.4,2.832c0.227-1.584-3.06-6.797-2.493-8.496
	c0.566-1.701,4.306-2.267,7.138-2.493s4.872,10.083,4.985,10.538c0.114,0.451,2.266,3.851,2.266,3.851s0.681-6.005-0.339-9.517
	c-1.021-3.512-1.473-4.192-1.473-4.192s4.078,1.813,7.816,1.021c3.738-0.794,4.646-0.794,4.646-0.794s0.68-1.699-0.113-3.966
	c-0.795-2.267-3.739-2.946-3.739-2.946l1.586-2.605l6.571,1.473c0,0,7.365,0.453,8.497-0.114c1.135-0.566-0.226-7.704-0.226-7.704
	s1.813-1.134,3.513-2.718c1.698-1.589,7.25,0.225,3.853-2.04c-3.399-2.267,0.565-0.794,1.926-4.647
	c1.359-3.851-1.473-4.53,0.565-9.517c2.04-4.984,3.285-0.339,5.778-0.112s1.813,1.021,5.099,3.738
	c3.287,2.72,3.738,1.246,5.325-0.794c1.586-2.04-2.267-2.04-2.605-5.323c-0.339-3.287,9.517-2.72,6.458,0.112
	c-3.059,2.834,0.112,3.738,4.419,5.438c4.306,1.701,0.635,6.912,0.635,6.912l-9.926,5.893l5.099,5.325l-4.191,0.68l4.532,1.698
	l2.491,2.381l-6.231,3.286l2.72,6.005l-2.379,6.229c0,0,0.225,8.837-0.906,12.805c-1.134,3.965-4.419,9.402-4.419,9.402
	l-8.612,6.572l-13.029,9.858l-22.319,14.501l-22.66,7.023l-0.34,4.872l36.143-11.669l27.872-21.188l-0.227-2.72
	c0,0-1.813-3.738,7.931-0.565c7.025-7.138,27.306-10.877,30.593-8.496c4.307-0.908,8.157-1.815,11.781-2.154
	c3.626-0.341,8.725-11.783,9.29-14.162c0.568-2.381,4.307-6.911,7.139-10.762c2.832-3.855,3.853-2.608,4.986,0.906
	c1.133,3.51-0.907,4.872-1.021,6.003c-0.112,1.135,2.834-0.68,7.026-2.04c4.191-1.357,2.152-4.304,3.285-7.136
	c1.133-2.834,13.482,3.512,13.823,1.586c0.339-1.928,7.024-0.908,7.478-1.586c0.453-0.681-0.907-2.605-0.565-3.513
	c0.339-0.908,7.364,1.473,7.364,1.473l-2.269,3.173c0,0-3.512,1.134-4.53,2.832c-1.02,1.699,2.039,4.08,2.607,3.966
	c0.565-0.112,1.131-2.835,1.472-4.192c0.339-1.359,15.296-7.818,16.653-8.839c1.362-1.02,12.01,0,12.01,0s15.524-4.19,17.111-4.984
	c1.586-0.792,7.477-3.853,16.768-1.813c9.29,2.04,9.631,5.666,9.631,5.666s5.664-6.911,4.078-8.839
	c-1.587-1.925-0.227-7.25-0.112-7.931c0.112-0.68-4.76-4.191-6.232-5.21c-1.474-1.021-3.967,1.019-5.778,1.472
	c-1.813,0.453,0.565-5.099,1.02-6.685c0.453-1.587,5.213-0.566,5.893-1.246c0.678-0.68-0.453-3.965-0.453-3.965l3.965-3.739
	l4.419,26.965l0.792,0.792c0,0,0.256-10.167,0.252-20.167C842.82,527.57,842.755,522.757,842.57,519.167z M660.067,425.334
	c0.018-0.002,0.036,0,0.056-0.002c-0.119,0.598-0.125,1.777-0.596,2.097L660.067,425.334z M623.395,198.056
	c-0.24,0.086-0.498,0.126-0.76,0.136C622.891,198.159,623.144,198.115,623.395,198.056z M514.145,199.187l-0.075-0.021
	c0.041-0.029,0.076-0.063,0.119-0.092C514.174,199.112,514.158,199.149,514.145,199.187z"/>
</svg>
